<svg width="24" height="24" viewBox="0 0 24 24" fill="none" xmlns="http://www.w3.org/2000/svg">
<path d="M16.375 21H7.375C5.47656 21 4 19.5234 4 17.625V15.0938C4 14.6367 4.35156 14.25 4.84375 14.25C5.30078 14.25 5.6875 14.6367 5.6875 15.0938V17.625C5.6875 18.5742 6.42578 19.3125 7.375 19.3125H16.375C17.2891 19.3125 18.0625 18.5742 18.0625 17.625V15.0938C18.0625 14.6367 18.4141 14.25 18.9062 14.25C19.3633 14.25 19.75 14.6367 19.75 15.0938V17.625C19.75 19.4883 18.2383 21 16.375 21ZM12.4375 15.1641L17.2188 10.6641C17.5703 10.3477 17.5703 9.82031 17.2539 9.46875C16.9375 9.11719 16.4102 9.11719 16.0586 9.43359L12.7188 12.5977V3.84375C12.7188 3.38672 12.332 3 11.875 3C11.3828 3 11.0312 3.38672 11.0312 3.84375V12.5977L7.65625 9.43359C7.30469 9.11719 6.77734 9.11719 6.46094 9.46875C6.32031 9.64453 6.25 9.85547 6.25 10.0312C6.25 10.2773 6.32031 10.4883 6.49609 10.6641L11.2773 15.1641C11.5938 15.4805 12.1211 15.4805 12.4375 15.1641Z" fill="white"/>
</svg>
