<svg width="30" height="30" viewBox="0 0 30 30" fill="none" xmlns="http://www.w3.org/2000/svg">
<path d="M15.7969 15.75C14.1562 15.75 12.2344 16.4062 10.875 17.3906C9.75 18.1875 8.8125 18.9844 6 18.9844H3C1.3125 18.9844 0 20.4375 0 22.2188C0 23.9531 1.3125 25.5 3 25.5H6L8.67188 26.2031C10.1719 26.6719 11.7188 27 13.7344 27C18.8906 27 24 24.4219 24 20.5781C24 17.3906 20.0156 15.75 15.7969 15.75ZM5.25 24H3C2.20312 24 1.5 23.1562 1.5 22.2188C1.5 21.2344 2.15625 20.4844 3 20.4844H5.25V24ZM9.04688 24.75L6.75 24.1875V20.4375C9.32812 20.2969 10.5 19.5 11.5781 18.75C15.8438 15.7031 22.5 17.8594 22.5 20.5781C22.5 23.4844 16.7812 27.0469 9.04688 24.75ZM19.7344 3C17.6719 3 16.1719 3.375 14.6719 3.84375L12 4.5H9C7.3125 4.5 6 6.04688 6 7.82812C6 9.65625 7.3125 11.0625 9 11.0625H12C14.8125 11.0625 15.75 11.8594 16.875 12.6562C18.2344 13.5938 20.1562 14.25 21.7969 14.25C26.0156 14.25 30 12.6562 30 9.46875C30 5.625 24.9844 3 19.7344 3ZM11.25 9.5625H9C8.15625 9.5625 7.5 8.8125 7.5 7.82812C7.5 6.89062 8.20312 6 9 6H11.25V9.5625ZM21.7969 12.75C20.4844 12.75 18.8906 12.1875 17.7656 11.3906C16.6406 10.6406 15.4688 9.75 12.75 9.5625V5.85938L15.0938 5.25C16.5 4.875 17.8594 4.5 19.7344 4.5C22.1719 4.5 28.5 5.71875 28.5 9.46875C28.5 11.625 25.125 12.75 21.7969 12.75Z" fill="#5C8EE6"/>
</svg>
