<svg width="30" height="30" viewBox="0 0 30 30" fill="none" xmlns="http://www.w3.org/2000/svg">
<path d="M24.5 4H6.5C5.65625 4 5 4.70312 5 5.5V8.5C5 9.34375 5.65625 10 6.5 10V24.25C6.5 24.625 6.73438 24.9531 7.10938 25C7.57812 25.0938 8 24.7188 8 24.25V22H18.5V24.25C18.5 24.6719 18.8281 25 19.2031 25C19.5781 25 20 24.6719 20 24.25V22H23V24.25C23 24.625 23.2344 24.9531 23.6094 25C24.0781 25.0938 24.5 24.7188 24.5 24.25V10C25.2969 10 26 9.34375 26 8.5V5.5C26 4.70312 25.2969 4 24.5 4ZM11 14.5H8V10H11V14.5ZM8 20.5V16H14V20.5H8ZM23 20.5H15.5V16H23V20.5ZM23 14.5H12.5V10H23V14.5ZM24.5 8.5H6.5V5.5H24.5V8.5Z" fill="#5C8EE6"/>
</svg>
