<svg width="30" height="30" viewBox="0 0 30 30" fill="none" xmlns="http://www.w3.org/2000/svg">
<path d="M22.5 3H7.5C6.65625 3 6 3.70312 6 4.5V18C6 19.6875 7.3125 21 9 21H12V24C12 25.6875 13.3125 27 15 27C16.6406 27 18 25.6875 18 24V21H21C22.6406 21 24 19.6875 24 18V4.5C24 3.70312 23.2969 3 22.5 3ZM22.5 18C22.5 18.8438 21.7969 19.5 21 19.5H16.5V24C16.5 24.8438 15.7969 25.5 15 25.5C14.1562 25.5 13.5 24.8438 13.5 24V19.5H9C8.15625 19.5 7.5 18.8438 7.5 18V16.5H22.5V18ZM22.5 15H7.5V4.5H22.5V15Z" fill="#5C8EE6"/>
</svg>
