<svg width="30" height="30" viewBox="0 0 30 30" fill="none" xmlns="http://www.w3.org/2000/svg">
<path d="M23.1406 16.8281L22.3906 13.5938C22.0625 12.2344 20.8906 11.25 19.4844 11.25H11.375C9.96875 11.25 8.75 12.2344 8.42188 13.5938L7.67188 16.9219C6.54688 17.4844 5.75 18.6562 5.75 20.0156V22.5938C5.75 23.5312 6.35938 24.375 7.25 24.6562V26.25C7.25 26.6719 7.57812 27 8 27C8.375 27 8.75 26.6719 8.75 26.25V24.75H22.25V26.25C22.25 26.6719 22.5781 27 23 27C23.375 27 23.75 26.6719 23.75 26.25V24.6562C24.6406 24.375 25.2031 23.5312 25.25 22.5938V20.0156C25.25 18.6562 24.4062 17.3906 23.1406 16.8281ZM9.875 13.9219C10.0625 13.2656 10.6719 12.75 11.375 12.75H19.4844C20.1875 12.75 20.7969 13.2656 20.9375 13.9219L21.5469 16.5H9.3125L9.875 13.9219ZM23.75 22.5938C23.75 22.9688 23.4219 23.25 23.0469 23.25H7.90625C7.53125 23.25 7.25 22.9688 7.25 22.5938V20.0156C7.25 18.9375 8.14062 18 9.21875 18H21.7344C22.8125 18 23.75 18.9375 23.75 20.0156V22.5938ZM20.75 19.5C20.0938 19.5 19.625 20.0156 19.625 20.625C19.625 21.2812 20.0938 21.75 20.75 21.75C21.3594 21.75 21.875 21.2812 21.875 20.625C21.875 20.0156 21.3594 19.5 20.75 19.5ZM10.25 19.5C9.59375 19.5 9.125 20.0156 9.125 20.625C9.125 21.2812 9.59375 21.75 10.25 21.75C10.8594 21.75 11.375 21.2812 11.375 20.625C11.375 20.0156 10.8594 19.5 10.25 19.5ZM8.75 10.5C9.96875 10.5 11.0469 9.9375 11.7031 9.04688H19.25C19.9062 9.9375 20.9844 10.5 22.25 10.5C24.3125 10.5 26 8.85938 26 6.75C26 4.6875 24.3125 3 22.25 3C20.9844 3 19.9062 3.60938 19.25 4.54688H11.7031C11.0469 3.60938 9.96875 3 8.75 3C6.64062 3 5 4.6875 5 6.75C5 8.85938 6.64062 10.5 8.75 10.5ZM6.59375 6C6.92188 5.15625 7.76562 4.5 8.75 4.5C9.40625 4.5 10.0625 4.875 10.5312 5.4375C10.8125 5.8125 11.2344 6.04688 11.7031 6.04688H19.25C19.7188 6.04688 20.1406 5.8125 20.4219 5.4375C20.8906 4.875 21.5469 4.5 22.25 4.5C23.1875 4.5 24.0312 5.15625 24.3594 6H22.25V7.5H24.3594C24.0312 8.39062 23.1875 9 22.25 9C21.5469 9 20.8906 8.67188 20.4219 8.10938C20.1406 7.73438 19.7188 7.54688 19.25 7.54688H11.7031C11.2344 7.54688 10.8125 7.73438 10.5312 8.10938C10.0625 8.67188 9.40625 9 8.75 9C7.76562 9 6.92188 8.39062 6.59375 7.5H8.75V6H6.59375Z" fill="#5C8EE6"/>
</svg>
