<svg width="30" height="30" viewBox="0 0 30 30" fill="none" xmlns="http://www.w3.org/2000/svg">
<path d="M14.75 8.95312C15.9688 8.95312 17 7.92188 17 6.70312C17 5.71875 15.8281 3.9375 15.3594 3.23438C15.2188 3.09375 14.9844 3 14.75 3C14.4688 3 14.2344 3.09375 14.0938 3.28125C13.625 3.98438 12.5 5.76562 12.5 6.70312C12.5 7.96875 13.4844 8.95312 14.75 8.95312ZM14.75 5.10938C15.1719 5.85938 15.4531 6.51562 15.5 6.70312C15.5 7.125 15.125 7.45312 14.75 7.45312C14.3281 7.45312 14 7.125 14 6.70312C14 6.46875 14.2812 5.8125 14.75 5.10938ZM21.5 8.95312C22.7188 8.95312 23.75 7.96875 23.75 6.70312C23.75 5.76562 22.5781 3.98438 22.1094 3.28125C21.9688 3.09375 21.7344 3 21.5 3C21.2188 3 20.9844 3.09375 20.8438 3.28125C20.375 3.98438 19.25 5.76562 19.25 6.70312C19.25 7.96875 20.2344 8.95312 21.5 8.95312ZM21.5 5.10938C21.9219 5.85938 22.2031 6.51562 22.25 6.70312C22.25 7.125 21.875 7.45312 21.5 7.45312C21.0781 7.45312 20.75 7.125 20.75 6.70312C20.75 6.46875 21.0312 5.8125 21.5 5.10938ZM8 8.95312C9.21875 8.95312 10.25 7.96875 10.25 6.70312C10.25 5.76562 9.07812 3.98438 8.60938 3.28125C8.46875 3.09375 8.23438 3 8 3C7.71875 3 7.48438 3.09375 7.34375 3.28125C6.875 3.98438 5.75 5.76562 5.75 6.70312C5.75 7.96875 6.73438 8.95312 8 8.95312ZM8 5.10938C8.42188 5.8125 8.70312 6.46875 8.75 6.70312C8.75 7.125 8.375 7.45312 8 7.45312C7.57812 7.45312 7.25 7.125 7.25 6.70312C7.25 6.46875 7.53125 5.8125 8 5.10938ZM20 19.4531C19.3438 19.4531 18.875 19.9688 18.875 20.5781C18.875 21.2344 19.3438 21.7031 20 21.7031C20.6094 21.7031 21.125 21.2344 21.125 20.5781C21.125 19.9688 20.6094 19.4531 20 19.4531ZM22.3906 16.7812L21.6406 13.5469C21.3125 12.1875 20.1406 11.2031 18.7344 11.2031H10.5781C9.21875 11.2031 8 12.1875 7.67188 13.5469L6.92188 16.875C5.79688 17.4375 5 18.6094 5 19.9688V22.5469C5 23.4844 5.60938 24.3281 6.5 24.6094V26.2031C6.5 26.625 6.82812 26.9531 7.25 26.9531C7.625 26.9531 8 26.625 8 26.2031V24.7031H21.5V26.2031C21.5 26.625 21.8281 26.9531 22.25 26.9531C22.625 26.9531 23 26.625 23 26.2031V24.6094C23.8906 24.3281 24.4531 23.4844 24.5 22.5469V19.9688C24.5 18.6094 23.6562 17.3438 22.3906 16.7812ZM9.125 13.875C9.3125 13.2188 9.92188 12.75 10.625 12.75H18.7344C19.4375 12.75 20.0469 13.2188 20.1875 13.875L20.7969 16.5H8.5625L9.125 13.875ZM23 22.5469C23 22.9219 22.6719 23.25 22.2969 23.25H7.15625C6.78125 23.2031 6.5 22.9219 6.5 22.5469V19.9688C6.5 18.8906 7.39062 18 8.46875 18H20.9844C22.0625 18 23 18.8906 23 19.9688V22.5469ZM9.5 19.4531C8.84375 19.4531 8.375 19.9688 8.375 20.5781C8.375 21.2344 8.84375 21.7031 9.5 21.7031C10.1094 21.7031 10.625 21.2344 10.625 20.5781C10.625 19.9688 10.1094 19.4531 9.5 19.4531Z" fill="#5C8EE6"/>
</svg>
