<svg width="30" height="30" viewBox="0 0 30 30" fill="none" xmlns="http://www.w3.org/2000/svg">
<path d="M15 22.5C15.375 22.5 15.75 22.1719 15.75 21.75V20.25H17.25C17.625 20.25 18 19.9219 18 19.5C18 19.125 17.625 18.75 17.25 18.75H15.75V17.25C15.75 16.875 15.375 16.5 15 16.5C14.5781 16.5 14.25 16.875 14.25 17.25V18.75H12.75C12.3281 18.75 12 19.125 12 19.5C12 19.9219 12.3281 20.25 12.75 20.25H14.25V21.75C14.25 22.1719 14.5781 22.5 15 22.5ZM3.75 13.5C4.125 13.5 4.5 13.1719 4.5 12.75V10.5H6C6.375 10.5 6.75 10.1719 6.75 9.75C6.75 9.375 6.375 9 6 9H4.5V6.75C4.5 6.375 4.125 6 3.75 6C3.32812 6 3 6.375 3 6.75V9H0.75C0.328125 9 0 9.375 0 9.75C0 10.0781 0.328125 10.5 0.75 10.5H3V12.75C3 13.1719 3.32812 13.5 3.75 13.5ZM29.25 22.5H27V20.25C27 19.875 26.625 19.5 26.25 19.5C25.8281 19.5 25.5 19.875 25.5 20.25V22.5H23.25C22.8281 22.5 22.5 22.875 22.5 23.25C22.5 23.625 22.8281 24 23.25 24H25.5V26.25C25.5 26.6719 25.8281 27 26.25 27C26.625 27 27 26.6719 27 26.25V24H29.25C29.625 24 29.9531 23.6719 29.9531 23.2969C29.9531 22.9219 29.625 22.5 29.25 22.5ZM21.375 24.5625C20.8594 24.5625 20.0625 25.5 17.9531 25.5H13.2188C11.4375 25.5 9.79688 24.6562 8.76562 23.25L4.73438 17.9062C4.54688 17.6719 4.45312 17.4375 4.45312 17.1562C4.45312 16.5469 4.96875 16.125 5.53125 16.125C5.76562 16.125 6.14062 16.2188 6.42188 16.5938L8.01562 18.7031C8.29688 19.0781 8.76562 19.3125 9.1875 19.3125C9.375 19.3125 10.5 19.1719 10.5 18.0469C10.5 18.0469 10.5 18.0469 10.5 18V7.17188C10.5 6.60938 10.9219 6 11.625 6C12.2344 6 12.75 6.51562 12.75 7.125V14.25C12.75 14.3438 12.8438 15.0469 13.5 15.0469C13.875 15.0469 14.2031 14.6719 14.2031 14.2969V5.67188C14.2031 5.10938 14.625 4.5 15.3281 4.5C15.9375 4.5 16.4531 5.01562 16.4531 5.625V14.25C16.4531 14.3438 16.5469 15.0469 17.2031 15.0469C17.5781 15.0469 17.9531 14.6719 17.9531 14.2969V7.17188C17.9531 6.60938 18.375 6 19.0781 6C19.6875 6 20.2031 6.51562 20.2031 7.125V14.2031C20.2031 14.3438 20.2969 15 20.9531 15C21.3281 15 21.7031 14.6719 21.7031 14.2969V9.42188C21.7031 8.8125 22.125 8.25 22.8281 8.25C23.4375 8.25 23.9531 8.76562 23.9531 9.375V17.1094C23.9531 17.4844 24.2812 17.8594 24.7031 17.8594C25.0781 17.8594 25.5 17.4844 25.5 17.1094V9.46875C25.5 8.4375 24.7031 6.75 22.8281 6.75C22.4531 6.75 22.0781 6.84375 21.7031 6.98438C21.6562 5.625 20.4844 4.5 19.0781 4.5C18.6094 4.5 18.1875 4.64062 17.8125 4.82812C17.4844 3.79688 16.5 3 15.3281 3C14.1562 3 13.2188 3.79688 12.8438 4.875C12.4688 4.64062 12.0469 4.5 11.625 4.5C9.75 4.5 9 6.23438 9 7.26562V17.4375L7.54688 15.6094C7.07812 15 6.32812 14.625 5.53125 14.625C4.125 14.625 3 15.7031 3 17.1562C3 17.7188 3.14062 18.3281 3.51562 18.7969L7.59375 24.1406C8.85938 25.9219 10.9688 27 13.2188 27H18C19.5 27 22.125 26.2969 22.125 25.3125C22.125 25.0312 21.9375 24.5625 21.375 24.5625Z" fill="#5C8EE6"/>
</svg>
