<svg width="30" height="30" viewBox="0 0 30 30" fill="none" xmlns="http://www.w3.org/2000/svg">
<path d="M14.2743 3.60938C14.1805 3.23438 13.8055 2.95312 13.3837 3.04688C12.9618 3.14062 12.7274 3.51562 12.8212 3.9375L13.8993 9.32812C14.3212 11.5781 13.5243 13.2188 11.5087 14.1094L11.0399 14.2969L11.4618 24.8906C11.4618 25.0781 11.4149 25.2656 11.2743 25.3594C11.2274 25.4531 11.1337 25.5 10.993 25.5H9.58678C9.44616 25.5 9.35241 25.4531 9.25866 25.3594C9.16491 25.2656 9.07116 25.0781 9.07116 24.9375L9.49303 14.2969L9.02428 14.1094C7.00866 13.1719 6.21178 11.5781 6.63366 9.375L7.75866 3.9375C7.80553 3.51562 7.57116 3.14062 7.14928 3.04688C6.77428 2.95312 6.35241 3.23438 6.25866 3.60938L5.13366 9.09375C4.61803 11.8125 5.60241 13.9688 7.94616 15.2344L7.57116 24.8906C7.57116 25.4062 7.75866 25.9688 8.13366 26.3906C8.50866 26.8125 9.02428 27 9.58678 27H10.993C11.5555 27 12.0243 26.8125 12.3993 26.3906C12.7743 25.9688 12.9618 25.4062 12.9618 24.8438L12.5868 15.2344C14.8837 14.0156 15.9149 11.7656 15.3993 9.04688L14.2743 3.60938ZM22.8524 3C21.3524 3 18.8212 5.0625 17.6962 7.73438C16.8993 9.60938 16.1024 13.3125 19.7587 17.2969L19.4305 24.75C19.3837 25.4062 19.618 26.0156 20.0399 26.4375C20.4149 26.8125 20.8837 27 21.3524 27H22.5712C23.6493 27 24.5399 26.0625 24.5399 24.8438V4.82812C24.5399 3.84375 23.7899 3 22.8524 3ZM23.0399 24.8438C23.0399 25.2656 22.7587 25.5 22.5712 25.5H21.3524C21.2587 25.5 21.1649 25.4531 21.118 25.4062C20.9774 25.2656 20.9305 25.0312 20.9305 24.8438L21.3055 16.7344L21.0712 16.5C17.9305 13.2188 18.2587 10.2656 19.0555 8.34375C20.1337 5.85938 22.243 4.5 22.8524 4.5C22.8993 4.5 23.0399 4.64062 23.0399 4.82812V24.8438ZM8.74303 11.25C8.74303 11.25 8.74303 11.25 8.78991 11.25C9.16491 11.25 9.49303 10.9688 9.49303 10.5469L9.86803 3.79688C9.91491 3.42188 9.58678 3.04688 9.16491 3.04688C8.78991 3 8.41491 3.32812 8.41491 3.75L8.03991 10.5C7.99303 10.875 8.32116 11.25 8.74303 11.25ZM11.7899 11.25C12.2118 11.25 12.5399 10.875 12.493 10.5L12.118 3.75C12.118 3.32812 11.7899 3 11.368 3.04688C10.9462 3.04688 10.618 3.42188 10.6649 3.79688L11.0399 10.5469C11.0399 10.9688 11.368 11.25 11.7899 11.25Z" fill="#5C8EE6"/>
</svg>
