<svg width="30" height="30" viewBox="0 0 30 30" fill="none" xmlns="http://www.w3.org/2000/svg">
<path d="M22.3393 12.375L19.6675 15H10.2456L17.6518 7.64062C17.9331 7.35938 17.9331 6.89062 17.6518 6.60938C17.3706 6.28125 16.855 6.28125 16.5737 6.60938L4.52683 18.6094C2.74558 20.4375 2.41746 23.3906 4.10496 25.3594C5.08933 26.4375 6.40183 27 7.76121 27C9.02683 27 10.2456 26.5312 11.1831 25.5938L23.4175 13.4062C23.6987 13.125 23.6987 12.6562 23.4175 12.375C23.1362 12.0469 22.6206 12.0469 22.3393 12.375ZM10.1518 24.5625C9.49558 25.1719 8.65183 25.5 7.76121 25.5C6.77683 25.5 5.88621 25.0781 5.22996 24.375C4.10496 23.0625 4.29246 21 5.60496 19.6875L8.74558 16.5H18.1675L10.1518 24.5625ZM26.7925 11.4844L18.5425 3.23438C18.4018 3.09375 18.2143 3 18.0268 3C17.7925 3 17.605 3.09375 17.4643 3.23438C17.1831 3.51562 17.1831 4.03125 17.4643 4.3125L25.7143 12.5625C25.855 12.7031 26.0425 12.75 26.2768 12.75C26.4643 12.75 26.6518 12.7031 26.7925 12.5625C27.0737 12.2812 27.0737 11.7656 26.7925 11.4844Z" fill="#5C8EE6"/>
</svg>
