<svg width="30" height="30" viewBox="0 0 30 30" fill="none" xmlns="http://www.w3.org/2000/svg">
<path d="M15 14C14.1562 14 13.5 14.7031 13.5 15.5C13.5 16.3438 14.1562 17 15 17C15.7969 17 16.5 16.3438 16.5 15.5C16.5 14.7031 15.7969 14 15 14ZM7.5 14C6.65625 14 6 14.7031 6 15.5C6 16.3438 6.65625 17 7.5 17C8.29688 17 9 16.3438 9 15.5C9 14.7031 8.29688 14 7.5 14ZM22.5 14C21.6562 14 21 14.7031 21 15.5C21 16.3438 21.6562 17 22.5 17C23.2969 17 24 16.3438 24 15.5C24 14.7031 23.2969 14 22.5 14Z" fill="#5C8EE6"/>
</svg>
