<svg width="30" height="30" viewBox="0 0 30 30" fill="none" xmlns="http://www.w3.org/2000/svg">
<path d="M29.8813 8.54898C29.6938 7.98648 29.3188 7.56461 28.8032 7.28336L20.5063 3.06461C20.1782 2.92398 19.8032 3.01773 19.5688 3.29898C18.8188 4.37711 16.9438 5.08023 14.9751 5.08023C13.0532 5.08023 11.1782 4.37711 10.4282 3.29898C10.1938 3.01773 9.81882 2.92398 9.4907 3.06461L1.19382 7.28336C0.678196 7.56461 0.303196 7.98648 0.115696 8.54898C-0.0718041 9.11148 -0.0249291 9.67398 0.209446 10.1896L2.50632 14.924C3.02195 15.9552 4.33445 16.3771 5.3657 15.9084L7.52195 14.9709V24.8146C7.52195 26.0334 8.45945 26.9709 9.6782 26.9709H20.3188C21.5376 26.9709 22.5219 26.0334 22.5219 24.8146L22.4751 14.9709L24.5844 15.8615C25.6626 16.3771 26.9751 15.9552 27.4907 14.8771L29.7876 10.1896C30.0219 9.67398 30.0688 9.11148 29.8813 8.54898ZM28.4282 9.53336L26.1782 14.2209C25.9907 14.549 25.5688 14.6896 25.2407 14.5021L22.0532 13.1427C21.8188 13.049 21.5376 13.0959 21.3501 13.2365C21.1157 13.3771 20.9751 13.6115 20.9751 13.8459L21.0219 24.8146C21.0219 25.1896 20.6938 25.4709 20.3188 25.4709H9.6782C9.3032 25.4709 9.02195 25.1896 9.02195 24.8146V13.8459C9.02195 13.6115 8.88132 13.3771 8.64695 13.2365C8.5532 13.1427 8.41257 13.0959 8.27195 13.0959C8.13132 13.0959 8.03757 13.1427 7.94382 13.1427L4.75632 14.5021C4.4282 14.6896 4.00632 14.549 3.8657 14.2209L1.56882 9.53336C1.47507 9.34586 1.47507 9.20523 1.52195 9.01773C1.56882 8.87711 1.70945 8.73648 1.89695 8.64273L9.63132 4.65836C10.8032 5.87711 12.8188 6.58023 15.0219 6.58023C17.2251 6.58023 19.1938 5.87711 20.3657 4.65836L28.1001 8.64273C28.2876 8.73648 28.4282 8.87711 28.4751 9.01773C28.5219 9.20523 28.5219 9.34586 28.4282 9.53336Z" fill="#5C8EE6"/>
</svg>
