<svg width="30" height="30" viewBox="0 0 30 30" fill="none" xmlns="http://www.w3.org/2000/svg">
<path d="M25.875 6.75C26.4844 6.75 27 6.28125 27 5.625C27 5.01562 26.4844 4.5 25.875 4.5C25.2188 4.5 24.75 5.01562 24.75 5.625C24.75 6.28125 25.2188 6.75 25.875 6.75ZM10.5 14.25C8.39062 14.25 6.75 15.9375 6.75 18C6.75 20.1094 8.39062 21.75 10.5 21.75C12.5625 21.75 14.25 20.1094 14.25 18C14.25 15.9375 12.5625 14.25 10.5 14.25ZM10.5 20.25C9.23438 20.25 8.25 19.2656 8.25 18C8.25 16.7812 9.23438 15.75 10.5 15.75C11.7188 15.75 12.75 16.7812 12.75 18C12.75 19.2656 11.7188 20.25 10.5 20.25ZM25.875 13.5C25.2188 13.5 24.75 14.0156 24.75 14.625C24.75 15.2812 25.2188 15.75 25.875 15.75C26.4844 15.75 27 15.2812 27 14.625C27 14.0156 26.4844 13.5 25.875 13.5ZM21.375 4.5C20.7188 4.5 20.25 5.01562 20.25 5.625C20.25 6.28125 20.7188 6.75 21.375 6.75C21.9844 6.75 22.5 6.28125 22.5 5.625C22.5 5.01562 21.9844 4.5 21.375 4.5ZM13.5 9V4.5C13.5 3.70312 12.7969 3 12 3H9C8.15625 3 7.5 3.70312 7.5 4.5V9C5.01562 9 3 11.0156 3 13.5V24C3 25.6875 4.3125 27 6 27H15C16.6406 27 18 25.6875 18 24V13.5C18 11.0156 15.9844 9 13.5 9ZM9 4.5H12V9H9V4.5ZM16.5 24C16.5 24.8438 15.7969 25.5 15 25.5H6C5.15625 25.5 4.5 24.8438 4.5 24V13.5C4.5 11.8594 5.8125 10.5 7.5 10.5H13.5C15.1406 10.5 16.5 11.8594 16.5 13.5V24ZM25.875 9C25.2188 9 24.75 9.51562 24.75 10.125C24.75 10.7812 25.2188 11.25 25.875 11.25C26.4844 11.25 27 10.7812 27 10.125C27 9.51562 26.4844 9 25.875 9ZM21.375 9C20.7188 9 20.25 9.51562 20.25 10.125C20.25 10.7812 20.7188 11.25 21.375 11.25C21.9844 11.25 22.5 10.7812 22.5 10.125C22.5 9.51562 21.9844 9 21.375 9ZM16.875 4.5C16.2188 4.5 15.75 5.01562 15.75 5.625C15.75 6.28125 16.2188 6.75 16.875 6.75C17.4844 6.75 18 6.28125 18 5.625C18 5.01562 17.4844 4.5 16.875 4.5Z" fill="#5C8EE6"/>
</svg>
