<svg width="30" height="30" viewBox="0 0 30 30" fill="none" xmlns="http://www.w3.org/2000/svg">
<path d="M14.75 11.25C14.3281 11.25 14 11.625 14 12C14 12.4219 14.3281 12.75 14.75 12.75C15.125 12.75 15.5 12.375 15.5 12C15.5 11.625 15.125 11.25 14.75 11.25ZM20 10.5H19.3906C18.5 10.5 17.8906 9.75 17.8906 8.95312C17.8906 8.625 18.0312 8.20312 18.3594 7.92188L18.7344 7.5C18.875 7.35938 18.9688 7.17188 18.9688 6.98438C18.9688 6.60938 18.6406 6.28125 18.2188 6.28125C18.0312 6.28125 17.8438 6.375 17.7031 6.51562L17.2812 6.89062C17 7.21875 16.625 7.35938 16.25 7.35938C15.4531 7.35938 14.7031 6.75 14.7031 5.85938V5.25C14.7031 4.82812 14.375 4.5 13.9531 4.5C13.5781 4.5 13.2031 4.82812 13.2031 5.25V5.8125C13.2031 6.70312 12.5 7.3125 11.7031 7.3125C11.3281 7.3125 10.9531 7.17188 10.6719 6.84375L10.25 6.51562C10.1094 6.32812 9.92188 6.28125 9.73438 6.28125C9.3125 6.28125 8.98438 6.60938 8.98438 6.98438C8.98438 7.17188 9.07812 7.35938 9.21875 7.5L9.59375 7.92188C9.92188 8.25 10.0625 8.625 10.0625 9C10.0625 9.79688 9.45312 10.5469 8.5625 10.5469H8C7.57812 10.5469 7.25 10.875 7.25 11.2969C7.25 11.6719 7.57812 12.0469 8 12.0469H8.5625C9.45312 12.0469 10.0625 12.75 10.0625 13.5469C10.0625 13.9219 9.92188 14.2969 9.59375 14.5781L9.21875 15C9.07812 15.1406 8.98438 15.3281 8.98438 15.5156C8.98438 15.9375 9.3125 16.2188 9.73438 16.2188C9.92188 16.2188 10.1094 16.1719 10.25 15.9844L10.6719 15.6094C10.9531 15.2812 11.3281 15.1406 11.7031 15.1406C12.0312 15.1406 13.25 15.4219 13.25 16.6406V17.25C13.25 17.625 13.5781 18 14 18C14.375 18 14.75 17.625 14.75 17.25V16.6406C14.75 15.75 15.4531 15.1406 16.25 15.1406C16.625 15.1406 17 15.2812 17.2812 15.6094L17.7031 15.9844C17.8438 16.1719 18.0312 16.2188 18.2188 16.2188C18.6406 16.2188 18.9688 15.8906 18.9688 15.5156C18.9688 15.3281 18.875 15.1406 18.7344 15L18.3594 14.5781C18.0312 14.2969 17.8906 13.9219 17.8906 13.5469C17.8906 12.75 18.5 12 19.3906 12H20C20.375 12 20.75 11.6719 20.75 11.25C20.75 10.875 20.375 10.5 20 10.5ZM16.3906 13.5469C16.3906 13.5938 16.3906 13.6406 16.3906 13.6875C16.3438 13.6875 16.2969 13.6875 16.25 13.6875C15.3594 13.6875 14.5156 14.1094 13.9531 14.7188C13.4375 14.1094 12.6406 13.6875 11.7031 13.6875C11.6562 13.6875 11.6094 13.6875 11.5156 13.6875C11.5625 13.6406 11.5625 13.5938 11.5625 13.5469C11.5625 12.8438 11.2812 11.9531 10.5312 11.2969C11.1406 10.7344 11.5625 9.89062 11.5625 9C11.5625 8.95312 11.5625 8.90625 11.5156 8.85938C11.6094 8.85938 11.6562 8.85938 11.7031 8.85938C12.5938 8.85938 13.4375 8.4375 13.9531 7.82812C14.5156 8.4375 15.3125 8.85938 16.25 8.85938C16.2969 8.85938 16.3438 8.85938 16.3906 8.85938C16.3906 8.90625 16.3906 8.95312 16.3906 9C16.3906 9.84375 16.7656 10.6875 17.4219 11.2969C16.8125 11.8125 16.3906 12.6562 16.3906 13.5469ZM13.25 9.75C12.8281 9.75 12.5 10.0781 12.5 10.5C12.5 10.875 12.8281 11.25 13.25 11.25C13.625 11.25 14 10.9219 14 10.5C14 10.125 13.625 9.75 13.25 9.75ZM23.8438 3.9375L14.8438 0.1875C14.6094 0.09375 14.2344 0 14 0C13.7188 0 13.3438 0.09375 13.1094 0.1875L4.10938 3.9375C3.26562 4.3125 2.75 5.10938 2.75 6C2.75 18.0938 11.6094 24 13.9531 24C16.3906 24 25.25 18 25.25 6C25.25 5.10938 24.6875 4.3125 23.8438 3.9375ZM13.9531 22.5C11.9375 22.5 4.25 16.6875 4.25 6C4.25 5.67188 4.39062 5.39062 4.67188 5.29688L13.6719 1.54688C13.7656 1.5 13.9062 1.5 14 1.5C14.0469 1.5 14.2344 1.5 14.2812 1.54688L23.2812 5.29688C23.5625 5.4375 23.75 5.71875 23.75 6C23.75 18.2812 14.5625 22.5 13.9531 22.5Z" fill="#5C8EE6"/>
</svg>
