<svg width="30" height="30" viewBox="0 0 30 30" fill="none" xmlns="http://www.w3.org/2000/svg">
<path d="M28.9531 26.1562C28.9531 25.7812 28.6719 25.4531 28.2969 25.4062C25.5781 25.0312 25.2969 23.2031 24.4531 23.2031C24.2188 23.2031 23.9844 23.2969 23.8438 23.4844C22.9531 24.7031 21.5 25.4531 19.9531 25.4531C18.3594 25.4531 16.9062 24.7031 16.0625 23.4844C15.9219 23.2969 15.6875 23.2031 15.4531 23.2031C15.2188 23.2031 14.9844 23.2969 14.8438 23.4844C13.9531 24.7031 12.5 25.4531 10.9531 25.4531C7.76562 25.4531 7.34375 23.25 6.5 23.25C6.21875 23.25 5.98438 23.3438 5.84375 23.5312C4.10938 25.9688 2 24.8438 2 26.2031C2 26.8125 2.60938 26.9531 2.70312 26.9531C3.21875 26.9531 5.04688 26.5781 6.45312 25.125C7.625 26.2969 9.26562 26.9531 11 26.9531C12.7344 26.9531 14.3281 26.2969 15.5 25.125C16.625 26.2969 18.2656 27 20 27C21.6875 27 23.3281 26.2969 24.5 25.125C25.9062 26.5781 27.7812 26.9531 28.25 26.9531C28.8594 26.9062 28.9531 26.2969 28.9531 26.1562ZM13.0156 11.9531C12.3125 11.9531 11.75 12.4688 11.75 13.1719V18.1875C11.75 18.8906 12.2656 19.4531 13.0156 19.4531H17.9844C18.6875 19.4531 19.25 18.8906 19.25 18.1875V13.1719C19.25 12.5156 18.7344 11.9531 17.9844 11.9531H13.0156ZM17.75 17.9531H13.25V13.4531H17.7031V17.9531H17.75ZM2.75 15.7031C2.89062 15.7031 3.07812 15.6094 3.21875 15.5156L5 13.9688V20.2031C5 20.5781 5.32812 20.9062 5.70312 20.9062C6.07812 20.9062 6.40625 20.5781 6.40625 20.2031V12.7031C6.40625 12.6562 6.40625 12.6562 6.35938 12.6562L15.5 4.73438L24.5 12.6562C24.5 12.7031 24.4531 12.7031 24.4531 12.7031V20.2031C24.4531 20.5781 24.8281 20.9062 25.2031 20.9062C25.5781 20.9062 25.9062 20.5781 25.9062 20.2031V13.9688L27.6406 15.5156C27.7812 15.6094 27.9688 15.7031 28.1562 15.7031C28.5781 15.7031 28.9062 15.3281 28.9062 14.9531C28.9062 14.7188 28.8125 14.5312 28.625 14.4375L25.9062 12V5.25C25.9062 4.82812 25.5781 4.5 25.2031 4.5H20.7031C20.3281 4.5 20 4.875 20 5.25V6.70312L15.9688 3.14062C15.8281 3.04688 15.6406 3 15.5 3C15.3125 3 15.125 3.04688 14.9844 3.14062L2.23438 14.3906C2.04688 14.5781 2 14.7656 2 14.9531C2 15.375 2.32812 15.7031 2.75 15.7031ZM21.4531 5.95312H24.4062V10.6406L21.4531 7.96875V5.95312Z" fill="#5C8EE6"/>
</svg>
