<svg width="36" height="36" viewBox="0 0 36 36" fill="none" xmlns="http://www.w3.org/2000/svg">
<path d="M1.75 21.5H20.125C21.0547 21.5 21.875 20.7344 21.875 19.75V7.5C21.875 6.57031 21.0547 5.75 20.125 5.75H1.75C0.765625 5.75 0 6.57031 0 7.5V19.75C0 20.7344 0.765625 21.5 1.75 21.5ZM1.75 7.5H20.125V19.75H1.75V7.5ZM33.9609 15.2656L30.7344 12.0391C30.0781 11.3828 29.2031 11.0547 28.2734 11.0547H24.5C24.0078 11.0547 23.625 11.4375 23.625 11.9297V23.3047H12.4688C11.8125 22.7578 10.9922 22.4297 10.0625 22.4297C8.80469 22.4297 7.71094 22.9766 7 23.9062C6.23438 22.9766 5.14062 22.375 3.9375 22.375C1.75 22.375 0 24.1797 0 26.3125C0 28.5 1.75 30.25 3.9375 30.25C5.14062 30.25 6.23438 29.7031 7 28.7734C7.71094 29.7031 8.80469 30.25 10.0625 30.25C12.1953 30.25 14 28.5 14 26.3125C14 25.875 13.8906 25.4375 13.7266 25H24.5547C24.3906 25.7656 24.4453 26.5312 24.7188 27.3516C25.1562 28.7188 26.3594 29.8125 27.7812 30.1406C30.625 30.8516 33.25 28.6641 33.25 25.875C33.25 25.6016 33.1953 25.3281 33.1406 25H34.125C34.5625 25 35 24.6172 35 24.125V17.7266C35 16.7969 34.6172 15.9219 33.9609 15.2656ZM3.9375 28.5C2.67969 28.5 1.75 27.5703 1.75 26.3125C1.75 25.1094 2.67969 24.125 3.9375 24.125C5.14062 24.125 6.125 25.1094 6.125 26.3125C6.125 27.5703 5.14062 28.5 3.9375 28.5ZM10.0625 28.5C8.80469 28.5 7.875 27.5703 7.875 26.3125C7.875 25.1094 8.80469 24.125 10.0625 24.125C11.2656 24.125 12.25 25.1094 12.25 26.3125C12.25 27.5703 11.2656 28.5 10.0625 28.5ZM25.375 12.75H28.2734C28.7656 12.75 29.2031 12.9688 29.5312 13.2969L32.4844 16.25H25.375V12.75ZM28.875 28.5C27.3984 28.5 26.25 27.3516 26.25 25.875C26.25 24.4531 27.3984 23.25 28.875 23.25C30.2969 23.25 31.5 24.4531 31.5 25.875C31.5 27.3516 30.2969 28.5 28.875 28.5ZM33.25 23.25H32.3203C31.5547 22.2109 30.2969 21.5 28.875 21.5C27.3984 21.5 26.1953 22.2109 25.375 23.25V18H33.25V23.25ZM5.6875 18H6.5625C6.78125 18 7 17.8359 7 17.5625V9.6875C7 9.46875 6.78125 9.25 6.5625 9.25H5.6875C5.41406 9.25 5.25 9.46875 5.25 9.6875V17.5625C5.25 17.8359 5.41406 18 5.6875 18ZM10.9375 18H11.8125C12.0312 18 12.25 17.8359 12.25 17.5625V9.6875C12.25 9.46875 12.0312 9.25 11.8125 9.25H10.9375C10.6641 9.25 10.5 9.46875 10.5 9.6875V17.5625C10.5 17.8359 10.6641 18 10.9375 18ZM16.1875 18H17.0625C17.2812 18 17.5 17.8359 17.5 17.5625V9.6875C17.5 9.46875 17.2812 9.25 17.0625 9.25H16.1875C15.9141 9.25 15.75 9.46875 15.75 9.6875V17.5625C15.75 17.8359 15.9141 18 16.1875 18Z" fill="#5C8EE6"/>
</svg>
