<svg width="36" height="36" viewBox="0 0 36 36" fill="none" xmlns="http://www.w3.org/2000/svg">
<path d="M11.625 13.875C10.6406 13.875 9.875 14.6953 9.875 15.625C9.875 16.6094 10.6406 17.375 11.625 17.375C12.5547 17.375 13.375 16.6094 13.375 15.625C13.375 14.6953 12.5547 13.875 11.625 13.875ZM17.75 6C9.05469 6 2 13.0547 2 21.75C2 24.6484 2.76562 27.3828 4.13281 29.6797C4.40625 30.2266 5.00781 30.5547 5.60938 30.5547H29.8359C30.4375 30.5547 31.0391 30.2266 31.3672 29.6797C32.6797 27.3828 33.5 24.6484 33.5 21.75C33.5 13.0547 26.4453 6 17.75 6ZM17.75 27.875C16.4922 27.875 15.5625 26.9453 15.5625 25.6875C15.5625 24.4844 16.4922 23.5 17.75 23.5C18.9531 23.5 19.9375 24.4844 19.9375 25.6875C19.9375 26.9453 18.9531 27.875 17.75 27.875ZM29.3438 27.875H22.0156C22.3438 27.2188 22.5625 26.5078 22.5625 25.6875C22.5625 25.3594 22.5078 25.0312 22.3984 24.7031L27.4297 22.5703C28.0859 22.2422 28.4141 21.4766 28.1406 20.8203C27.8125 20.1641 27.0469 19.8359 26.3906 20.1094L21.1953 22.3516C20.3203 21.4766 19.0625 20.875 17.75 20.875C15.0703 20.875 12.9375 23.0625 12.9375 25.6875C12.9375 26.5078 13.1016 27.2188 13.4844 27.875H6.10156C5.11719 26.0156 4.625 23.9375 4.625 21.75C4.625 14.5312 10.4766 8.625 17.75 8.625C24.9688 8.625 30.875 14.5312 30.875 21.75C30.875 23.9375 30.3281 26.0156 29.3438 27.875ZM9 20C8.01562 20 7.25 20.8203 7.25 21.75C7.25 22.7344 8.01562 23.5 9 23.5C9.92969 23.5 10.75 22.7344 10.75 21.75C10.75 20.8203 9.92969 20 9 20ZM17.75 11.25C16.7656 11.25 16 12.0703 16 13C16 13.9844 16.7656 14.75 17.75 14.75C18.6797 14.75 19.5 13.9844 19.5 13C19.5 12.0703 18.6797 11.25 17.75 11.25ZM23.875 13.875C22.8906 13.875 22.125 14.6953 22.125 15.625C22.125 16.6094 22.8906 17.375 23.875 17.375C24.8047 17.375 25.625 16.6094 25.625 15.625C25.625 14.6953 24.8047 13.875 23.875 13.875Z" fill="#5C8EE6"/>
</svg>
