<svg width="36" height="36" viewBox="0 0 36 36" fill="none" xmlns="http://www.w3.org/2000/svg">
<path d="M27.2216 9.35938L22.6825 4.82031C22.1903 4.32812 21.4794 4 20.8232 4H9.66691C8.19035 4.05469 7.04191 5.20312 7.04191 6.67969V13.0781C6.71379 13.0781 6.38566 13.0234 5.67473 12.8047C5.62004 12.8047 5.51066 12.8047 5.40129 12.8047C5.12785 12.8047 4.85441 12.9141 4.69035 13.0781C3.70598 14.1172 3.76066 14.0625 2.39348 14.4453C2.01066 14.5547 1.73723 14.8281 1.62785 15.2109C1.29973 16.5781 1.29973 16.5234 0.31535 17.5078C0.0419129 17.7812 -0.0674621 18.2188 0.0419129 18.6016C0.424725 19.9141 0.424725 19.9141 0.0419129 21.2266C-0.0674621 21.6094 0.0419129 22.0469 0.31535 22.3203C1.29973 23.3047 1.29973 23.3047 1.62785 24.6172C1.73723 25 2.01066 25.2734 2.39348 25.3828C2.50285 25.4375 2.55754 25.4375 2.66691 25.4375V31.125C2.66691 31.4531 2.77629 31.7266 3.04973 31.8906C3.32316 32.0547 3.65129 32.0547 3.92473 31.9453L7.04191 30.3594L10.1044 31.9453C10.2685 32 10.3779 32 10.5419 32H25.4169C26.8388 32 28.0419 30.8516 28.0419 29.4297V11.2188C28.0419 10.5625 27.7138 9.85156 27.2216 9.35938ZM21.0419 5.80469C21.1513 5.85938 21.3153 5.91406 21.4247 6.02344L26.0185 10.6172C26.1278 10.7266 26.1825 10.8906 26.2372 11.0547H21.0419V5.80469ZM1.8466 21.3359C2.12004 20.1328 2.12004 19.6953 1.8466 18.4922C2.66691 17.6172 2.88566 17.2344 3.21379 16.0312C4.41691 15.7031 4.74504 15.4844 5.62004 14.6094C6.16691 14.7734 6.54973 14.8281 7.04191 14.8281C7.47941 14.8281 7.86223 14.7734 8.4091 14.6094C9.22941 15.4844 9.61223 15.7031 10.8154 16.0312C11.1435 17.2344 11.3075 17.5625 12.1825 18.4922C11.8544 19.6953 11.8544 20.1328 12.1825 21.3359C11.3622 22.2109 11.1435 22.5938 10.8154 23.7969C9.99504 24.0156 9.50285 24.1797 8.73723 24.8359C8.19035 24.6172 7.64348 24.5078 7.04191 24.5078C6.38566 24.5078 5.83879 24.6172 5.29191 24.8906C4.52629 24.2344 4.0341 24.0156 3.21379 23.7969C2.88566 22.5938 2.7216 22.2656 1.8466 21.3359ZM7.42473 28.6094C7.15129 28.5 6.87785 28.5 6.60441 28.6094L4.41691 29.7578V26.4219C4.41691 26.4766 4.41691 26.4766 4.41691 26.4766C4.63566 26.6953 4.9091 26.75 5.12785 26.75C5.3466 26.75 5.51066 26.6953 5.72941 26.6406C6.11223 26.3672 6.54973 26.2578 7.04191 26.2578C7.47941 26.2578 7.91691 26.3672 8.29973 26.5859C8.51848 26.75 8.68254 26.75 8.90129 26.75C9.17473 26.75 9.39348 26.6953 9.61223 26.4766C9.61223 26.4766 9.61223 26.4766 9.66691 26.4219V29.7578L7.42473 28.6094ZM26.2919 29.4297C26.2919 29.8672 25.8544 30.3047 25.4169 30.3047H11.4169V25.4375C11.4716 25.4375 11.5263 25.4375 11.6357 25.3828C12.0185 25.2734 12.2919 25 12.4013 24.6172C12.7294 23.25 12.7294 23.3047 13.7138 22.3203C13.9872 22.0469 14.0966 21.6094 13.9872 21.2266C13.6044 19.9141 13.6044 19.9141 13.9872 18.6016C14.0966 18.2188 13.9872 17.7812 13.7138 17.5078C12.7294 16.5234 12.7294 16.5234 12.4013 15.2109C12.2919 14.8281 12.0185 14.5547 11.6357 14.4453C10.3232 14.0625 10.3232 14.1172 9.33879 13.0781C9.17473 12.9141 8.95598 12.8594 8.79191 12.8047V6.67969C8.79191 6.1875 9.17473 5.75 9.66691 5.75H19.2919V11.4922C19.2919 12.2031 19.8388 12.75 20.6044 12.75H26.2919V29.4297Z" fill="#5C8EE6"/>
</svg>
