<svg width="36" height="36" viewBox="0 0 36 36" fill="none" xmlns="http://www.w3.org/2000/svg">
<path d="M17.1172 23.25C15.5312 23.25 14.8203 24.125 12.25 24.125C9.625 24.125 8.91406 23.25 7.32812 23.25C3.28125 23.25 0 26.5859 0 30.6328C0 31.3984 0.601562 32 1.36719 32H23.0781C23.8438 32 24.5 31.3984 24.5 30.6328C24.5 26.5859 21.1641 23.25 17.1172 23.25ZM1.75 30.25C1.91406 27.3516 4.375 25.0547 7.32812 25C8.42188 25 9.46094 25.875 12.25 25.875C15.0391 25.875 16.0234 25 17.1172 25C20.0703 25.0547 22.5312 27.3516 22.6953 30.25H1.75ZM4.8125 12.75H5.46875C5.30469 13.3516 5.25 13.8984 5.25 14.5C5.25 18.3828 8.36719 21.5 12.25 21.5C16.0781 21.5 19.25 18.3828 19.25 14.5C19.1953 13.8984 19.1406 13.3516 18.9766 12.75H19.6875C19.9062 12.75 20.125 12.5859 20.125 12.3125V11.4375C20.125 11.2188 19.9062 11 19.6875 11H19.25C19.25 8.21094 17.3359 5.85938 14.7109 5.14844C14.4922 4.49219 13.8359 4.05469 13.125 4H11.375C10.6094 4.05469 9.95312 4.49219 9.73438 5.14844C7.16406 5.85938 5.25 8.21094 5.25 11H4.8125C4.53906 11 4.375 11.2188 4.375 11.4375V12.3125C4.375 12.5859 4.53906 12.75 4.8125 12.75ZM14.875 7.00781C16.4062 7.71875 17.4453 9.25 17.5 11H14.875V7.00781ZM11.375 5.75H13.125V11H11.375V5.75ZM7 11C7 9.25 8.03906 7.71875 9.625 7.00781V11H7ZM7.32812 12.75H17.1719C17.3359 13.2969 17.4453 13.8984 17.5 14.5C17.5 17.3984 15.0938 19.75 12.25 19.75C9.35156 19.75 7 17.3984 7 14.5C7 13.8984 7.10938 13.2969 7.32812 12.75Z" fill="#5C8EE6"/>
</svg>
