<svg width="16" height="17" viewBox="0 0 16 17" fill="none" xmlns="http://www.w3.org/2000/svg">
<path d="M15.9688 12.0822L15.2188 15.2384C15.125 15.7072 14.75 16.0197 14.2812 16.0197C6.40625 15.9884 0 9.58218 0 1.70718C0 1.23843 0.28125 0.86343 0.75 0.76968L3.90625 0.0196803C4.34375 -0.0740697 4.8125 0.17593 5 0.58218L6.46875 3.98843C6.625 4.39468 6.53125 4.86343 6.1875 5.11343L4.5 6.48843C5.5625 8.64468 7.3125 10.3947 9.5 11.4572L10.875 9.76968C11.125 9.45718 11.5938 9.33218 12 9.48843L15.4062 10.9572C15.8125 11.1759 16.0625 11.6447 15.9688 12.0822Z" fill="#5C8EE6"/>
</svg>
