<svg width="140" height="121" viewBox="0 0 140 121" fill="none" xmlns="http://www.w3.org/2000/svg">
<path d="M98.0283 26.4162H84.4525L81.002 20.8727L74.3273 10.5212L58.4889 35.1273L51.1919 46.5535L45.2525 55.8303L37.9556 67.2L31.9596 76.4768L24.6626 87.903H11.1434L18.4404 76.4768L24.3798 67.2L31.6768 55.8303L37.6162 46.5535L67.5394 0H81.1152L87.7333 10.3515L94.5212 20.8727L98.0283 26.4162Z" fill="#828A99"/>
<path d="M137.511 87.903H37.2202L45.3091 76.4768L51.2485 67.2L58.5455 55.8303L64.5414 46.5535L71.8384 35.1273H103.685L110.982 46.5535H78.0606L72.1212 55.8303L64.8242 67.2L58.8848 76.4768H116.638L110.699 67.2H76.5899L84.1697 55.8303H116.921L124.275 67.2L130.214 76.4768L137.511 87.903Z" fill="#828A99"/>
<path d="M19.8545 120.089L18.2141 117.147H9.2202L11.4263 113.018H16.0646L12.7838 106.853L5.71313 120.089H0L9.84242 102.271C10.3515 101.309 11.1434 100.857 12.1616 100.857H13.3495C14.3111 100.857 15.103 101.309 15.6121 102.271L25.4545 120.089H19.8545Z" fill="#828A99"/>
<path d="M34.901 120.089C33.4303 120.089 32.0727 119.863 30.8283 119.41C29.5838 118.958 28.5091 118.279 27.604 117.43C26.699 116.638 25.9636 115.62 25.4545 114.432C24.9455 113.244 24.7192 111.943 24.7192 110.473C24.7192 109.059 24.9455 107.701 25.4545 106.57C25.9636 105.382 26.699 104.364 27.604 103.515C28.5091 102.667 29.5838 101.988 30.8283 101.535C32.0727 101.083 33.4303 100.857 34.901 100.857H45.196V105.778H34.5616C33.8828 105.778 33.2606 105.891 32.695 106.117C32.0727 106.343 31.6202 106.683 31.1677 107.079C30.7717 107.531 30.4323 107.984 30.2061 108.606C29.9798 109.172 29.8667 109.794 29.8667 110.473C29.8667 111.152 29.9798 111.774 30.2061 112.396C30.4323 112.962 30.7717 113.414 31.1677 113.81C31.6202 114.263 32.0727 114.545 32.695 114.772C33.2606 114.998 33.8828 115.111 34.5616 115.111H40.2747V112.509H34.0525V108.38H45.196V120.089H34.901Z" fill="#828A99"/>
<path d="M62.5051 120.089V105.778H55.3778V100.857H74.7232V105.778H67.6525V120.089H62.5051Z" fill="#828A99"/>
<path d="M83.8869 112.509V108.38H95.2566V112.509H83.8869ZM76.9859 120.089V100.857H95.4263V105.778H82.1333V115.111H95.4828V120.089H76.9859Z" fill="#828A99"/>
<path d="M108.097 120.089C106.57 120.089 105.212 119.863 103.968 119.41C102.723 118.958 101.648 118.279 100.8 117.43C99.895 116.638 99.1596 115.62 98.6505 114.432C98.1414 113.244 97.8586 111.943 97.8586 110.473C97.8586 109.059 98.1414 107.701 98.6505 106.57C99.1596 105.382 99.895 104.364 100.8 103.515C101.648 102.667 102.723 101.988 103.968 101.535C105.212 101.083 106.57 100.857 108.097 100.857H117.487V105.778H107.701C107.022 105.778 106.4 105.891 105.834 106.117C105.269 106.343 104.76 106.683 104.364 107.079C103.968 107.531 103.628 107.984 103.402 108.606C103.176 109.172 103.063 109.794 103.063 110.473C103.063 111.152 103.176 111.774 103.402 112.396C103.628 112.962 103.968 113.414 104.364 113.81C104.76 114.263 105.269 114.545 105.834 114.772C106.4 114.998 107.022 115.111 107.701 115.111H117.487V120.089H108.097Z" fill="#828A99"/>
<path d="M134.853 120.089V112.622H127.329V107.927H134.853V100.857H140V120.089H134.853ZM120.372 120.089V100.857H125.576V120.089H120.372Z" fill="#828A99"/>
</svg>
