<svg width="103" height="140" viewBox="0 0 103 140" fill="none" xmlns="http://www.w3.org/2000/svg">
<path d="M16.1146 121.929C16.1146 122.074 16.0664 122.18 15.9796 122.257C15.8929 122.343 15.7772 122.382 15.6327 122.382H12.828C12.7027 122.382 12.5967 122.334 12.51 122.247C12.4232 122.16 12.3558 122.054 12.3269 121.929L11.1028 116.898H5.0117L3.78769 121.929C3.75878 122.054 3.69131 122.16 3.60457 122.247C3.51783 122.334 3.41181 122.382 3.28652 122.382H0.481894C0.337326 122.382 0.221671 122.343 0.13493 122.257C0.0481889 122.18 0 122.074 0 121.929C0 121.91 0.00963995 121.89 0.00963995 121.881C0.0192778 121.861 0.0289125 121.833 0.0289125 121.794L4.3756 105.178C4.52981 104.561 4.76112 104.08 5.05989 103.723C5.35867 103.376 5.68636 103.106 6.03332 102.913C6.37065 102.73 6.72725 102.615 7.09349 102.557C7.45009 102.509 7.77778 102.48 8.05728 102.48C8.33678 102.48 8.66446 102.509 9.02107 102.557C9.38731 102.615 9.74391 102.73 10.0812 102.913C10.4282 103.106 10.7462 103.376 11.0547 103.723C11.3534 104.08 11.5847 104.561 11.7389 105.178L16.0856 121.794C16.0856 121.833 16.0953 121.861 16.0953 121.881C16.1049 121.89 16.1146 121.91 16.1146 121.929ZM8.48134 106.007C8.44279 105.843 8.40424 105.737 8.34641 105.67C8.29822 105.612 8.20185 105.583 8.05728 105.583C7.91271 105.583 7.81633 105.612 7.76814 105.67C7.71031 105.737 7.67176 105.843 7.63321 106.007L5.72491 113.872H10.3896L8.48134 106.007Z" fill="#5C8EE6"/>
<path d="M29.2317 121.669C29.2317 121.861 29.1932 121.996 29.1161 122.064C29.0293 122.131 28.8944 122.189 28.7016 122.218C28.5089 122.276 28.2294 122.324 27.8631 122.363C27.5065 122.411 27.1114 122.449 26.6873 122.488C26.2633 122.526 25.8295 122.546 25.3862 122.565C24.9429 122.584 24.5477 122.594 24.1911 122.594C23.3333 122.594 22.5237 122.526 21.7816 122.382C21.0395 122.237 20.3938 121.967 19.8541 121.572C19.3047 121.177 18.871 120.618 18.5529 119.915C18.2349 119.211 18.071 118.295 18.071 117.158V103.222C18.071 103.077 18.1289 102.952 18.2349 102.846C18.3409 102.74 18.4662 102.692 18.6011 102.692H21.2226C21.3672 102.692 21.4925 102.74 21.5985 102.846C21.7045 102.952 21.7624 103.077 21.7624 103.222V117.158C21.7624 118.045 21.9069 118.642 22.2057 118.96C22.5045 119.279 23.0442 119.442 23.8249 119.442H28.7016C28.8462 119.442 28.9619 119.491 29.0679 119.597C29.1739 119.703 29.2317 119.828 29.2317 119.972V121.669Z" fill="#5C8EE6"/>
<path d="M35.4289 121.852C35.4289 121.996 35.3807 122.112 35.2747 122.218C35.1687 122.324 35.0434 122.382 34.8988 122.382H32.2773C32.1327 122.382 32.0171 122.324 31.9111 122.218C31.805 122.112 31.7472 121.996 31.7472 121.852V103.193C31.7472 103.058 31.805 102.933 31.9111 102.836C32.0171 102.74 32.1327 102.692 32.2773 102.692H34.8988C35.0434 102.692 35.1687 102.74 35.2747 102.836C35.3807 102.933 35.4289 103.058 35.4289 103.193V121.852Z" fill="#5C8EE6"/>
<path d="M54.03 121.929C54.03 122.074 53.9915 122.18 53.9047 122.257C53.818 122.343 53.7023 122.382 53.5578 122.382H50.7435C50.6278 122.382 50.5218 122.334 50.4351 122.247C50.3387 122.16 50.2809 122.054 50.2423 121.929L49.0279 116.898H42.9272L41.7128 121.929C41.6742 122.054 41.6164 122.16 41.5297 122.247C41.4333 122.334 41.3273 122.382 41.2116 122.382H38.3974C38.2624 122.382 38.1468 122.343 38.0504 122.257C37.9636 122.18 37.9251 122.074 37.9251 121.929C37.9251 121.91 37.9251 121.89 37.9347 121.881C37.9444 121.861 37.9444 121.833 37.9444 121.794L42.2911 105.178C42.4549 104.561 42.6862 104.08 42.985 103.723C43.2838 103.376 43.6018 103.106 43.9488 102.913C44.2957 102.73 44.6523 102.615 45.0089 102.557C45.3752 102.509 45.6932 102.48 45.9824 102.48C46.2619 102.48 46.5799 102.509 46.9462 102.557C47.3124 102.615 47.6594 102.73 48.0063 102.913C48.3533 103.106 48.6713 103.376 48.9701 103.723C49.2689 104.08 49.5002 104.561 49.664 105.178L54.0107 121.794C54.0107 121.833 54.0107 121.861 54.0204 121.881C54.03 121.89 54.03 121.91 54.03 121.929ZM46.4064 106.007C46.3679 105.843 46.3197 105.737 46.2715 105.67C46.2137 105.612 46.1173 105.583 45.9824 105.583C45.8378 105.583 45.7414 105.612 45.6836 105.67C45.6354 105.737 45.5872 105.843 45.5583 106.007L43.65 113.872H48.3147L46.4064 106.007Z" fill="#5C8EE6"/>
<path d="M71.4168 121.322C71.4168 121.621 71.3204 121.871 71.118 122.074C70.906 122.276 70.6554 122.382 70.3566 122.382H67.6773C67.3689 122.382 67.0701 122.343 66.7906 122.257C66.5207 122.18 66.2798 121.9 66.0677 121.428L60.179 108.523C60.1115 108.378 60.0344 108.311 59.9477 108.311C59.8513 108.311 59.8127 108.378 59.8127 108.523V121.852C59.8127 121.996 59.7646 122.112 59.6682 122.218C59.5718 122.324 59.4465 122.382 59.3116 122.382H57.0563C56.9117 122.382 56.7864 122.324 56.6804 122.218C56.5744 122.112 56.5262 121.996 56.5262 121.852V103.752C56.5262 103.453 56.6226 103.203 56.8346 103C57.037 102.798 57.2876 102.692 57.5864 102.692H60.4488C60.7283 102.692 60.9597 102.74 61.1235 102.846C61.2873 102.952 61.4512 103.183 61.615 103.54L67.7833 117.158C67.8411 117.303 67.9086 117.37 67.9953 117.37C68.0917 117.37 68.1302 117.293 68.1302 117.129V103.193C68.1302 102.856 68.3037 102.692 68.6314 102.692H70.9156C71.2529 102.692 71.4168 102.856 71.4168 103.193V121.322Z" fill="#5C8EE6"/>
<path d="M87.1072 121.563C87.1072 121.755 87.0494 121.89 86.9434 121.967C86.8374 122.054 86.7025 122.112 86.5193 122.17C86.4133 122.208 86.2398 122.247 85.9796 122.286C85.7194 122.334 85.411 122.372 85.0351 122.42C84.6689 122.469 84.2544 122.507 83.7918 122.536C83.3388 122.575 82.8473 122.594 82.3365 122.594C81.5462 122.594 80.6981 122.478 79.821 122.247C78.9343 122.016 78.1344 121.601 77.4019 120.994C76.6694 120.377 76.0719 119.558 75.59 118.507C75.1081 117.467 74.8671 116.127 74.8671 114.488V110.585C74.8671 108.927 75.1081 107.568 75.59 106.518C76.0719 105.467 76.6694 104.639 77.4019 104.041C78.1344 103.443 78.9343 103.029 79.821 102.807C80.6981 102.586 81.5462 102.48 82.3365 102.48C82.8473 102.48 83.3388 102.499 83.7918 102.528C84.2544 102.566 84.6689 102.605 85.0351 102.653C85.411 102.692 85.7194 102.74 85.9796 102.798C86.2398 102.846 86.4133 102.884 86.5193 102.904C86.7025 102.952 86.8374 103.019 86.9434 103.106C87.0494 103.183 87.1072 103.318 87.1072 103.511V105.284C87.1072 105.448 87.0687 105.583 86.9916 105.689C86.9049 105.795 86.7699 105.843 86.5772 105.843H86.5193C86.2977 105.824 86.0182 105.805 85.6905 105.776C85.3628 105.757 85.0158 105.728 84.6399 105.708C84.2737 105.699 83.8882 105.679 83.5027 105.66C83.1172 105.641 82.7413 105.631 82.3847 105.631C81.8257 105.631 81.3052 105.718 80.8426 105.882C80.3704 106.055 79.9656 106.325 79.6379 106.711C79.3006 107.087 79.0307 107.597 78.8379 108.233C78.6452 108.87 78.5488 109.65 78.5488 110.585V114.488C78.5488 115.404 78.6452 116.175 78.8379 116.811C79.0307 117.447 79.3006 117.968 79.6379 118.353C79.9656 118.739 80.3704 119.018 80.8426 119.192C81.3052 119.356 81.8257 119.442 82.3847 119.442C82.7413 119.442 83.1172 119.433 83.5027 119.413C83.8882 119.394 84.2737 119.375 84.6399 119.356C85.0158 119.346 85.3628 119.317 85.6905 119.298C86.0182 119.269 86.2977 119.25 86.5193 119.23H86.5772C86.7699 119.23 86.9049 119.279 86.9916 119.385C87.0687 119.491 87.1072 119.625 87.1072 119.78V121.563Z" fill="#5C8EE6"/>
<path d="M102.027 121.669C102.027 121.861 101.988 121.996 101.911 122.064C101.824 122.131 101.689 122.189 101.497 122.218C101.285 122.257 101.053 122.295 100.793 122.343C100.533 122.382 100.215 122.42 99.8389 122.459C99.463 122.498 99.0004 122.526 98.4607 122.555C97.921 122.584 97.2559 122.594 96.456 122.594C95.5982 122.594 94.7886 122.526 94.0465 122.382C93.3044 122.237 92.649 121.967 92.0997 121.572C91.5503 121.177 91.1166 120.618 90.7986 119.915C90.4709 119.211 90.3167 118.295 90.3167 117.158V107.915C90.3167 106.778 90.4709 105.863 90.7986 105.159C91.1166 104.446 91.5503 103.896 92.0997 103.501C92.649 103.106 93.3044 102.836 94.0465 102.692C94.7886 102.547 95.5982 102.48 96.456 102.48C97.2559 102.48 97.921 102.489 98.4607 102.518C99.0004 102.547 99.463 102.576 99.8389 102.615C100.215 102.644 100.533 102.692 100.793 102.73C101.053 102.778 101.285 102.817 101.497 102.846C101.689 102.884 101.824 102.942 101.911 103.01C101.988 103.077 102.027 103.212 102.027 103.405V105.101C102.027 105.246 101.969 105.371 101.863 105.477C101.757 105.583 101.641 105.631 101.497 105.631H96.0898C95.3091 105.631 94.7694 105.795 94.461 106.113C94.1525 106.431 93.9983 107.029 93.9983 107.915V110.778H101.179C101.323 110.778 101.439 110.826 101.545 110.932C101.651 111.038 101.709 111.163 101.709 111.308V113.216C101.709 113.351 101.651 113.477 101.545 113.583C101.439 113.689 101.323 113.746 101.179 113.746H93.9983V117.158C93.9983 118.045 94.1525 118.642 94.461 118.96C94.7694 119.279 95.3091 119.442 96.0898 119.442H101.497C101.641 119.442 101.757 119.491 101.863 119.597C101.969 119.703 102.027 119.828 102.027 119.972V121.669Z" fill="#5C8EE6"/>
<path d="M9.84993 131.23C9.84993 131.972 9.71499 132.598 9.45477 133.099C9.18491 133.61 8.82831 134.015 8.38496 134.333C7.93198 134.641 7.42118 134.853 6.83326 134.988C6.24535 135.114 5.62853 135.181 4.97315 135.181C4.74184 135.181 4.48162 135.171 4.19248 135.152C3.89371 135.143 3.65276 135.123 3.46 135.114V139.528C3.46 139.614 3.43109 139.692 3.37326 139.759C3.3058 139.827 3.2287 139.865 3.14195 139.865H1.45532C1.35894 139.865 1.28184 139.827 1.21438 139.759C1.14691 139.692 1.10836 139.614 1.10836 139.528V127.895C1.10836 127.731 1.15655 127.606 1.25292 127.538C1.3493 127.461 1.48424 127.413 1.65772 127.394C2.09142 127.326 2.60223 127.268 3.1805 127.23C3.75878 127.191 4.35633 127.172 4.97315 127.172C5.62853 127.172 6.24535 127.23 6.83326 127.355C7.42118 127.48 7.94162 127.692 8.38496 128.001C8.82831 128.3 9.18491 128.704 9.45477 129.206C9.71499 129.707 9.84993 130.333 9.84993 131.075V131.23ZM7.49828 131.066C7.49828 130.352 7.28624 129.851 6.86218 129.553C6.44775 129.244 5.81165 129.1 4.96351 129.1C4.87677 129.1 4.76112 129.1 4.61655 129.109C4.48162 129.109 4.33705 129.119 4.19248 129.128C4.03827 129.128 3.90335 129.138 3.77805 129.138C3.64312 129.148 3.53711 129.157 3.46 129.167V133.205C3.52747 133.205 3.63349 133.205 3.77805 133.215C3.91299 133.215 4.05755 133.225 4.21176 133.234C4.36596 133.234 4.51053 133.244 4.6551 133.244C4.79003 133.253 4.89605 133.253 4.96351 133.253C5.87911 133.253 6.52485 133.09 6.92001 132.743C7.30552 132.405 7.49828 131.895 7.49828 131.22V131.066Z" fill="#5C8EE6"/>
<path d="M20.8178 139.663C20.8178 139.798 20.7504 139.865 20.6154 139.865H18.5529C18.4662 139.865 18.3891 139.827 18.3505 139.759C18.3024 139.692 18.2542 139.614 18.2156 139.528L15.7772 135.027H15.5459C15.3146 135.027 15.064 135.017 14.7652 135.008C14.4761 134.988 14.2352 134.969 14.0424 134.959V139.528C14.0424 139.614 14.0039 139.692 13.946 139.759C13.8882 139.827 13.8111 139.865 13.7147 139.865H12.0281C11.9413 139.865 11.8642 139.827 11.7968 139.759C11.7293 139.692 11.6908 139.614 11.6908 139.528V127.895C11.6908 127.731 11.7389 127.606 11.8353 127.538C11.9317 127.461 12.0666 127.413 12.2305 127.394C12.6738 127.326 13.1846 127.268 13.7533 127.23C14.3315 127.191 14.9291 127.172 15.5556 127.172C16.2013 127.172 16.8278 127.239 17.4157 127.365C18.0036 127.5 18.5144 127.712 18.9577 128.001C19.4107 128.29 19.7673 128.685 20.0275 129.177C20.2974 129.668 20.4227 130.266 20.4227 130.989V131.143C20.4227 132.049 20.2203 132.772 19.8059 133.34C19.3914 133.899 18.8324 134.323 18.1289 134.593L20.7793 139.528C20.8082 139.557 20.8178 139.605 20.8178 139.663ZM18.0807 130.989C18.0807 130.352 17.8686 129.89 17.4446 129.61C17.0205 129.321 16.3844 129.186 15.5459 129.186C15.4495 129.186 15.3339 129.186 15.199 129.196C15.0544 129.196 14.9098 129.206 14.7652 129.206C14.6207 129.215 14.4857 129.215 14.3508 129.225C14.2255 129.234 14.1195 129.244 14.0424 129.254V133.051C14.1099 133.051 14.2159 133.051 14.3508 133.061C14.4954 133.07 14.64 133.07 14.7942 133.08C14.9484 133.08 15.0929 133.09 15.2279 133.099C15.3724 133.099 15.4785 133.099 15.5459 133.099C16.423 133.099 17.0687 132.964 17.4735 132.685C17.8783 132.396 18.0807 131.885 18.0807 131.143V130.989Z" fill="#5C8EE6"/>
<path d="M31.6605 134.728C31.6605 135.663 31.5448 136.463 31.3039 137.128C31.0533 137.793 30.7256 138.333 30.3015 138.757C29.8678 139.181 29.3667 139.489 28.7787 139.692C28.1908 139.894 27.5547 140 26.8512 140C26.1572 140 25.5211 139.894 24.9332 139.692C24.3453 139.489 23.8441 139.181 23.4104 138.757C22.9864 138.333 22.6587 137.793 22.4081 137.128C22.1671 136.463 22.0515 135.663 22.0515 134.728V132.444C22.0515 131.519 22.1671 130.719 22.4081 130.054C22.6587 129.379 22.9864 128.839 23.4104 128.415C23.8441 127.991 24.3453 127.683 24.9332 127.48C25.5211 127.278 26.1572 127.172 26.8512 127.172C27.5547 127.172 28.1908 127.278 28.7787 127.48C29.3667 127.683 29.8678 127.991 30.3015 128.415C30.7256 128.839 31.0533 129.379 31.3039 130.054C31.5448 130.719 31.6605 131.519 31.6605 132.444V134.728ZM29.3185 132.444C29.3185 131.316 29.1161 130.497 28.7113 129.986C28.3161 129.475 27.6897 129.215 26.8512 129.215C26.0223 129.215 25.3958 129.475 25.0007 129.986C24.5959 130.497 24.3935 131.316 24.3935 132.444V134.728C24.3935 135.856 24.5959 136.675 25.0007 137.186C25.3958 137.697 26.0223 137.957 26.8512 137.957C27.6897 137.957 28.3161 137.697 28.7113 137.186C29.1161 136.675 29.3185 135.856 29.3185 134.728V132.444Z" fill="#5C8EE6"/>
<path d="M42.9657 134.824C42.9657 136.501 42.5127 137.783 41.5875 138.67C40.6719 139.557 39.3611 140 37.6552 140C37.3468 140 37.0288 139.99 36.6914 139.981C36.3638 139.971 36.0361 139.952 35.7277 139.933C35.4192 139.904 35.1397 139.884 34.8892 139.865C34.6289 139.836 34.4362 139.817 34.3205 139.798C34.1663 139.769 34.0603 139.72 33.9832 139.643C33.9157 139.566 33.8772 139.441 33.8772 139.268V127.895C33.8772 127.731 33.9157 127.606 33.9832 127.529C34.0603 127.451 34.1663 127.394 34.3205 127.374C34.4362 127.355 34.6289 127.326 34.8892 127.307C35.1397 127.288 35.4192 127.259 35.7277 127.239C36.0361 127.22 36.3638 127.201 36.6914 127.191C37.0288 127.182 37.3468 127.172 37.6552 127.172C39.3611 127.172 40.6719 127.615 41.5875 128.502C42.5127 129.379 42.9657 130.661 42.9657 132.348V134.824ZM40.6237 132.348C40.6237 131.721 40.5466 131.191 40.3924 130.786C40.2382 130.372 40.0262 130.044 39.7659 129.803C39.4961 129.562 39.1877 129.389 38.8214 129.292C38.4552 129.196 38.06 129.148 37.6456 129.148C37.3275 129.148 37.0577 129.157 36.836 129.167C36.6047 129.177 36.4023 129.186 36.2288 129.196V137.986C36.4023 137.995 36.6047 138.005 36.836 138.024C37.0577 138.034 37.3275 138.034 37.6456 138.034C38.06 138.034 38.4552 137.986 38.8214 137.889C39.1877 137.803 39.4961 137.629 39.7659 137.388C40.0262 137.138 40.2382 136.819 40.3924 136.405C40.5466 135.991 40.6237 135.47 40.6237 134.834V132.348Z" fill="#5C8EE6"/>
<path d="M54.3577 135.22C54.3577 136.116 54.242 136.868 54.0107 137.475C53.7794 138.092 53.4614 138.574 53.0469 138.949C52.6325 139.325 52.141 139.586 51.5723 139.749C51.0037 139.913 50.3869 140 49.7122 140C49.0376 140 48.4111 139.913 47.8425 139.749C47.2738 139.586 46.7823 139.325 46.3679 138.949C45.9631 138.574 45.6451 138.092 45.4137 137.475C45.1824 136.868 45.0668 136.116 45.0668 135.22V127.625C45.0668 127.538 45.0957 127.461 45.1632 127.403C45.2306 127.336 45.3077 127.307 45.4041 127.307H47.0715C47.1678 127.307 47.2449 127.336 47.3124 127.403C47.3799 127.461 47.4088 127.538 47.4088 127.625V135.229C47.4088 135.711 47.4473 136.135 47.5148 136.492C47.5823 136.839 47.6979 137.138 47.881 137.378C48.0545 137.619 48.2858 137.793 48.575 137.899C48.8737 138.015 49.2496 138.072 49.7122 138.072C50.1556 138.072 50.5315 138.015 50.8302 137.899C51.129 137.793 51.37 137.619 51.5434 137.378C51.7169 137.138 51.8422 136.839 51.9097 136.492C51.9771 136.135 52.0061 135.711 52.0061 135.229V127.625C52.0061 127.538 52.0446 127.461 52.1121 127.403C52.1795 127.336 52.2566 127.307 52.3434 127.307H54.0204C54.1071 127.307 54.1842 127.336 54.2517 127.403C54.3191 127.461 54.3577 127.538 54.3577 127.625V135.22Z" fill="#5C8EE6"/>
<path d="M64.2751 139.335C64.2751 139.46 64.2462 139.547 64.1787 139.605C64.1112 139.653 64.0149 139.692 63.8992 139.73C63.8317 139.749 63.7161 139.778 63.5619 139.807C63.398 139.836 63.1956 139.855 62.9547 139.884C62.7234 139.913 62.4535 139.942 62.1644 139.961C61.8753 139.99 61.5572 140 61.2295 140C60.7283 140 60.1886 139.923 59.6296 139.778C59.061 139.634 58.5502 139.364 58.0876 138.978C57.6249 138.583 57.2394 138.063 56.931 137.398C56.6226 136.733 56.4684 135.875 56.4684 134.824V132.348C56.4684 131.287 56.6226 130.42 56.931 129.745C57.2394 129.08 57.6249 128.55 58.0876 128.165C58.5502 127.789 59.061 127.529 59.6296 127.384C60.1886 127.239 60.7283 127.172 61.2295 127.172C61.5572 127.172 61.8753 127.182 62.1644 127.211C62.4535 127.23 62.7234 127.259 62.9547 127.278C63.1956 127.307 63.398 127.345 63.5619 127.374C63.7161 127.413 63.8317 127.432 63.8992 127.442C64.0149 127.48 64.1112 127.519 64.1787 127.567C64.2462 127.615 64.2751 127.712 64.2751 127.827V128.965C64.2751 129.061 64.2462 129.148 64.198 129.215C64.1498 129.283 64.0631 129.321 63.9378 129.321H63.8992C63.7546 129.312 63.5812 129.292 63.3691 129.273C63.1667 129.263 62.9451 129.244 62.7041 129.234C62.4632 129.225 62.2222 129.215 61.9813 129.196C61.7307 129.186 61.4897 129.186 61.2681 129.186C60.9115 129.186 60.5741 129.234 60.2754 129.34C59.9766 129.447 59.726 129.63 59.514 129.871C59.2923 130.112 59.1285 130.43 59.0032 130.834C58.8779 131.249 58.82 131.75 58.82 132.348V134.824C58.82 135.412 58.8779 135.904 59.0032 136.318C59.1285 136.723 59.2923 137.051 59.514 137.292C59.726 137.542 59.9766 137.716 60.2754 137.822C60.5741 137.937 60.9115 137.986 61.2681 137.986C61.4897 137.986 61.7307 137.976 61.9813 137.966C62.2222 137.957 62.4632 137.947 62.7041 137.937C62.9451 137.928 63.1667 137.909 63.3691 137.889C63.5812 137.88 63.7546 137.86 63.8992 137.851H63.9378C64.0631 137.851 64.1498 137.889 64.198 137.957C64.2462 138.024 64.2751 138.101 64.2751 138.207V139.335Z" fill="#5C8EE6"/>
<path d="M74.4141 128.965C74.4141 129.051 74.3756 129.128 74.3081 129.186C74.2407 129.244 74.1636 129.263 74.0768 129.263H71.118V139.528C71.118 139.614 71.0891 139.692 71.0216 139.759C70.9541 139.827 70.8674 139.865 70.7807 139.865H69.1037C69.0169 139.865 68.9398 139.827 68.8724 139.759C68.8049 139.692 68.7663 139.614 68.7663 139.528V129.263H65.8172C65.7208 129.263 65.6437 129.244 65.5762 129.186C65.5087 129.128 65.4798 129.051 65.4798 128.965V127.625C65.4798 127.538 65.5087 127.461 65.5762 127.403C65.6437 127.336 65.7208 127.307 65.8172 127.307H74.0768C74.1636 127.307 74.2407 127.336 74.3081 127.403C74.3756 127.461 74.4141 127.538 74.4141 127.625V128.965Z" fill="#5C8EE6"/>
<path d="M78.4524 139.528C78.4524 139.614 78.4139 139.692 78.3464 139.759C78.2789 139.827 78.2018 139.865 78.1151 139.865H76.4381C76.3514 139.865 76.2743 139.827 76.2068 139.759C76.1393 139.692 76.1008 139.614 76.1008 139.528V127.625C76.1008 127.538 76.1393 127.461 76.2068 127.403C76.2743 127.336 76.3514 127.307 76.4381 127.307H78.1151C78.2018 127.307 78.2789 127.336 78.3464 127.403C78.4139 127.461 78.4524 127.538 78.4524 127.625V139.528Z" fill="#5C8EE6"/>
<path d="M90.2588 134.728C90.2588 135.663 90.1432 136.463 89.9022 137.128C89.6613 137.793 89.324 138.333 88.8999 138.757C88.4662 139.181 87.965 139.489 87.3771 139.692C86.7892 139.894 86.1531 140 85.4592 140C84.7556 140 84.1195 139.894 83.5316 139.692C82.9533 139.489 82.4425 139.181 82.0184 138.757C81.5847 138.333 81.257 137.793 81.0161 137.128C80.7752 136.463 80.6499 135.663 80.6499 134.728V132.444C80.6499 131.519 80.7752 130.719 81.0161 130.054C81.257 129.379 81.5847 128.839 82.0184 128.415C82.4425 127.991 82.9533 127.683 83.5316 127.48C84.1195 127.278 84.7556 127.172 85.4592 127.172C86.1531 127.172 86.7892 127.278 87.3771 127.48C87.965 127.683 88.4662 127.991 88.8999 128.415C89.324 128.839 89.6613 129.379 89.9022 130.054C90.1432 130.719 90.2588 131.519 90.2588 132.444V134.728ZM87.9168 132.444C87.9168 131.316 87.7144 130.497 87.3096 129.986C86.9145 129.475 86.288 129.215 85.4592 129.215C84.6207 129.215 84.0038 129.475 83.5991 129.986C83.1943 130.497 83.0015 131.316 83.0015 132.444V134.728C83.0015 135.856 83.1943 136.675 83.5991 137.186C84.0038 137.697 84.6207 137.957 85.4592 137.957C86.288 137.957 86.9145 137.697 87.3096 137.186C87.7144 136.675 87.9168 135.856 87.9168 134.728V132.444Z" fill="#5C8EE6"/>
<path d="M101.969 139.19C101.969 139.374 101.911 139.537 101.776 139.672C101.651 139.798 101.487 139.865 101.294 139.865H99.5883C99.3859 139.865 99.2028 139.836 99.0293 139.788C98.8462 139.74 98.692 139.557 98.5571 139.258L94.8079 131.027C94.7597 130.931 94.7115 130.892 94.6537 130.892C94.5959 130.892 94.5766 130.931 94.5766 131.027V139.528C94.5766 139.614 94.5381 139.692 94.4802 139.759C94.4128 139.827 94.3453 139.865 94.2489 139.865H92.8129C92.7261 139.865 92.649 139.827 92.5816 139.759C92.5141 139.692 92.4756 139.614 92.4756 139.528V127.982C92.4756 127.789 92.543 127.635 92.6683 127.5C92.8032 127.374 92.9575 127.307 93.1502 127.307H94.9814C95.1549 127.307 95.2995 127.345 95.4055 127.413C95.5115 127.48 95.6175 127.625 95.7235 127.847L99.6558 136.53C99.6943 136.627 99.7329 136.665 99.7907 136.665C99.8485 136.665 99.8774 136.617 99.8774 136.521V127.625C99.8774 127.413 99.9835 127.307 100.196 127.307H101.651C101.863 127.307 101.969 127.413 101.969 127.625V139.19Z" fill="#5C8EE6"/>
<path fill-rule="evenodd" clip-rule="evenodd" d="M50.9459 9.87884C55.5721 9.87884 59.9862 10.7848 64.0149 12.4329V44.0162C64.0149 51.1772 58.2129 56.9792 51.0519 56.9792C48.0063 56.9792 45.2113 55.9287 42.9946 54.1746V65.6533C45.5005 66.5882 48.2184 67.099 51.0519 67.099C65.1329 67.099 74.1828 55.9769 74.1828 42.4935V6.57304C67.4267 2.40947 59.4658 0 50.9459 0C26.4367 0 6.57304 19.8637 6.57304 44.3728C6.57304 58.3671 13.0497 70.8481 23.1695 78.9825V64.8437C18.9481 59.1188 16.4422 52.035 16.4422 44.3728C16.4422 25.3187 31.8918 9.87884 50.9459 9.87884Z" fill="#5C8EE6"/>
<path fill-rule="evenodd" clip-rule="evenodd" d="M51.0808 78.8958C46.4546 78.8958 42.0405 77.9898 38.0118 76.3321V44.7487C38.0118 37.5974 43.8138 31.7858 50.9748 31.7858C54.0204 31.7858 56.8154 32.8363 59.0321 34.6V23.1213C56.5262 22.1864 53.8083 21.6756 50.9748 21.6756C36.8938 21.6756 27.8342 32.7881 27.8342 46.2811V82.2016C34.6 86.3651 42.5609 88.7746 51.0808 88.7746C75.59 88.7746 95.4537 68.9013 95.4537 44.4018C95.4537 30.4075 88.977 17.9265 78.8476 9.7921V23.9309C83.0786 29.6558 85.5748 36.7396 85.5748 44.4018C85.5748 63.4559 70.1349 78.8958 51.0808 78.8958Z" fill="#5C8EE6"/>
</svg>
