<svg width="24" height="24" viewBox="0 0 24 24" fill="none" xmlns="http://www.w3.org/2000/svg">
<path d="M8.44444 4C5.99378 4 4 5.99378 4 8.44444V15.5556C4 18.0062 5.99378 20 8.44444 20H15.5556C18.0062 20 20 18.0062 20 15.5556V8.44444C20 5.99378 18.0062 4 15.5556 4H8.44444ZM8.44444 5.77778H15.5556C17.0258 5.77778 18.2222 6.97422 18.2222 8.44444V15.5556C18.2222 17.0258 17.0258 18.2222 15.5556 18.2222H8.44444C6.97422 18.2222 5.77778 17.0258 5.77778 15.5556V8.44444C5.77778 6.97422 6.97422 5.77778 8.44444 5.77778ZM16.4444 6.66667C16.2087 6.66667 15.9826 6.76032 15.8159 6.92702C15.6492 7.09372 15.5556 7.31981 15.5556 7.55556C15.5556 7.7913 15.6492 8.0174 15.8159 8.18409C15.9826 8.35079 16.2087 8.44444 16.4444 8.44444C16.6802 8.44444 16.9063 8.35079 17.073 8.18409C17.2397 8.0174 17.3333 7.7913 17.3333 7.55556C17.3333 7.31981 17.2397 7.09372 17.073 6.92702C16.9063 6.76032 16.6802 6.66667 16.4444 6.66667ZM12 7.55556C9.54933 7.55556 7.55556 9.54933 7.55556 12C7.55556 14.4507 9.54933 16.4444 12 16.4444C14.4507 16.4444 16.4444 14.4507 16.4444 12C16.4444 9.54933 14.4507 7.55556 12 7.55556ZM12 9.33333C13.4702 9.33333 14.6667 10.5298 14.6667 12C14.6667 13.4702 13.4702 14.6667 12 14.6667C10.5298 14.6667 9.33333 13.4702 9.33333 12C9.33333 10.5298 10.5298 9.33333 12 9.33333Z" fill="#5C8EE6"/>
</svg>
