<svg width="200" height="63" viewBox="0 0 200 63" fill="none" xmlns="http://www.w3.org/2000/svg">
<g clip-path="url(#clip0_191_2493)">
<path fill-rule="evenodd" clip-rule="evenodd" d="M31.4182 6.99073C34.6937 6.99073 37.8189 7.63545 40.6735 8.80516V17.6484V31.1692C40.6735 36.2384 36.5641 40.3481 31.4949 40.3481C29.3392 40.3481 27.3571 39.605 25.7908 38.361V46.4865C27.5666 47.1482 29.4887 47.5099 31.4949 47.5099C41.4639 47.5099 47.8779 39.639 47.8779 30.0849V4.65162C43.0911 1.70182 37.4533 0 31.4182 0C14.0665 0 -6.10352e-05 14.0665 -6.10352e-05 31.4182C-6.10352e-05 41.3275 4.58752 50.1652 11.7546 55.9237V45.9139C8.76055 41.859 6.99067 36.8454 6.99067 31.4182C6.99067 17.9274 17.9274 6.99073 31.4182 6.99073Z" fill="#292D33"/>
<path fill-rule="evenodd" clip-rule="evenodd" d="M31.5171 55.8665C28.2412 55.8665 25.116 55.2218 22.2615 54.0521V45.2089V31.6881C22.2615 26.6188 26.3711 22.5092 31.4404 22.5092C33.596 22.5092 35.5778 23.2523 37.1441 24.4963V16.3708C35.3684 15.7091 33.4466 15.3474 31.4404 15.3474C21.4714 15.3474 15.0573 23.2183 15.0573 32.7724V58.2057C19.8438 61.1555 25.4817 62.8573 31.5171 62.8573C48.8688 62.8573 62.9353 48.7907 62.9353 31.4391C62.9353 21.5298 58.3477 12.6921 51.1807 6.93359V16.9434C54.1747 20.9983 55.9446 26.0119 55.9446 31.4391C55.9446 44.9299 45.0079 55.8665 31.5171 55.8665Z" fill="#5C8EE6"/>
<path d="M101.862 32.2194C101.862 32.3707 101.802 32.4918 101.711 32.5828C101.62 32.6737 101.468 32.734 101.317 32.734H98.1084C97.9571 32.734 97.836 32.6737 97.745 32.5828C97.6545 32.4918 97.5636 32.3707 97.5334 32.2194L96.1407 26.4679H89.1784L87.7856 32.2194C87.7555 32.3707 87.665 32.4918 87.574 32.5828C87.483 32.6737 87.3619 32.734 87.2106 32.734H84.0019C83.8506 32.734 83.6993 32.6737 83.6083 32.5828C83.5174 32.4918 83.457 32.3707 83.457 32.2194C83.457 32.1892 83.457 32.1892 83.4872 32.159C83.4872 32.1289 83.4872 32.0982 83.4872 32.0681L88.4521 13.0881C88.6335 12.3915 88.9059 11.8165 89.2387 11.4229C89.5719 11.0294 89.9655 10.6966 90.359 10.4845C90.7526 10.2729 91.1461 10.1518 91.5698 10.091C91.9634 10.0306 92.3268 10 92.6595 10C92.9927 10 93.3556 10.0306 93.7794 10.091C94.1729 10.1518 94.5971 10.2729 94.9906 10.4845C95.3842 10.6966 95.7471 11.0294 96.0803 11.4229C96.4131 11.8165 96.6855 12.3915 96.8674 13.0881L101.832 32.0681C101.832 32.0982 101.832 32.1289 101.862 32.159C101.862 32.1892 101.862 32.1892 101.862 32.2194ZM93.144 14.0265C93.1134 13.8445 93.0531 13.7234 92.9927 13.6329C92.9319 13.5721 92.8108 13.5419 92.6595 13.5419C92.5082 13.5419 92.3871 13.5721 92.3268 13.6329C92.266 13.7234 92.2056 13.8445 92.175 14.0265L89.9956 23.0169H95.3234L93.144 14.0265Z" fill="#292D33"/>
<path d="M116.847 31.9167C116.847 32.1288 116.816 32.2801 116.725 32.3706C116.634 32.4616 116.453 32.5219 116.241 32.5525C116.029 32.6129 115.696 32.6737 115.303 32.7038C114.879 32.7642 114.425 32.825 113.94 32.8551C113.456 32.8853 112.972 32.9155 112.457 32.9461C111.943 32.9762 111.488 32.9762 111.095 32.9762C110.096 32.9762 109.188 32.8853 108.34 32.734C107.492 32.5827 106.766 32.2499 106.13 31.7956C105.494 31.3417 105.01 30.7361 104.647 29.9188C104.284 29.1015 104.102 28.0722 104.102 26.7704V10.8479C104.102 10.6966 104.162 10.5448 104.284 10.4242C104.405 10.303 104.556 10.2423 104.708 10.2423H107.704C107.856 10.2423 108.007 10.303 108.128 10.4242C108.249 10.5448 108.31 10.6966 108.31 10.8479V26.7704C108.31 27.7696 108.492 28.4657 108.824 28.8291C109.158 29.192 109.793 29.374 110.671 29.374H116.241C116.392 29.374 116.544 29.4343 116.665 29.5554C116.786 29.6766 116.847 29.8279 116.847 29.9791V31.9167ZM123.93 32.1288C123.93 32.2801 123.869 32.4314 123.748 32.5525C123.627 32.6737 123.476 32.734 123.324 32.734H120.328C120.176 32.734 120.025 32.6737 119.904 32.5525C119.783 32.4314 119.722 32.2801 119.722 32.1288V10.8177C119.722 10.666 119.783 10.5147 119.904 10.3935C120.025 10.3031 120.176 10.2423 120.328 10.2423H123.324C123.476 10.2423 123.627 10.3031 123.748 10.3935C123.869 10.5147 123.93 10.666 123.93 10.8177V32.1288ZM145.18 32.2193C145.18 32.3706 145.12 32.4917 145.029 32.5827C144.939 32.6737 144.787 32.734 144.635 32.734H141.427C141.275 32.734 141.154 32.6737 141.063 32.5827C140.973 32.4917 140.882 32.3706 140.852 32.2193L139.459 26.4678H132.497L131.104 32.2193C131.074 32.3706 130.983 32.4917 130.892 32.5827C130.801 32.6737 130.681 32.734 130.529 32.734H127.32C127.169 32.734 127.018 32.6737 126.927 32.5827C126.836 32.4917 126.775 32.3706 126.775 32.2193C126.775 32.1891 126.775 32.1892 126.806 32.159C126.806 32.1288 126.806 32.0982 126.806 32.068L131.77 13.0881C131.952 12.3915 132.224 11.8165 132.557 11.4229C132.89 11.0294 133.284 10.6966 133.677 10.4845C134.071 10.2729 134.464 10.1518 134.888 10.091C135.282 10.0306 135.645 10 135.978 10C136.311 10 136.674 10.0306 137.098 10.091C137.492 10.1518 137.915 10.2729 138.309 10.4845C138.703 10.6966 139.065 11.0294 139.399 11.4229C139.731 11.8165 140.004 12.3915 140.186 13.0881L145.15 32.068C145.15 32.0982 145.15 32.1288 145.18 32.159C145.18 32.1892 145.18 32.1891 145.18 32.2193ZM136.462 14.0264C136.432 13.8445 136.371 13.7234 136.311 13.6329C136.25 13.5721 136.129 13.5419 135.978 13.5419C135.827 13.5419 135.705 13.5721 135.645 13.6329C135.584 13.7234 135.524 13.8445 135.494 14.0264L133.314 23.0168H138.642L136.462 14.0264ZM165.038 31.5232C165.038 31.8564 164.918 32.159 164.706 32.3706C164.463 32.6129 164.161 32.734 163.828 32.734H160.77C160.407 32.734 160.074 32.6737 159.771 32.5827C159.438 32.4917 159.166 32.1891 158.923 31.6443L152.203 16.902C152.112 16.7507 152.022 16.6597 151.931 16.6597C151.84 16.6597 151.78 16.7507 151.78 16.902V32.1288C151.78 32.2801 151.719 32.4314 151.628 32.5525C151.507 32.6737 151.356 32.734 151.205 32.734H148.631C148.48 32.734 148.329 32.6737 148.208 32.5525C148.086 32.4314 148.026 32.2801 148.026 32.1288V11.4531C148.026 11.1203 148.147 10.8177 148.389 10.5755C148.601 10.3634 148.904 10.2423 149.237 10.2423H152.506C152.839 10.2423 153.081 10.303 153.293 10.4242C153.475 10.5448 153.656 10.8177 153.838 11.2108L160.891 26.7704C160.952 26.9217 161.043 27.0127 161.133 27.0127C161.224 27.0127 161.285 26.9217 161.285 26.7402V10.8177C161.285 10.4242 161.467 10.2423 161.86 10.2423H164.463C164.857 10.2423 165.038 10.4242 165.038 10.8177V31.5232ZM182.959 31.7956C182.959 32.0077 182.899 32.159 182.778 32.2499C182.657 32.3404 182.505 32.4314 182.293 32.4917C182.172 32.5219 181.96 32.5827 181.688 32.6129C181.385 32.6737 181.022 32.734 180.598 32.7948C180.174 32.825 179.69 32.8853 179.176 32.9154C178.661 32.9461 178.085 32.9762 177.51 32.9762C176.602 32.9762 175.634 32.8551 174.634 32.5827C173.636 32.3103 172.697 31.8258 171.88 31.1296C171.032 30.4335 170.366 29.4951 169.791 28.3144C169.246 27.1338 168.974 25.5898 168.974 23.713V19.2633C168.974 17.3563 169.246 15.8123 169.791 14.6015C170.366 13.4208 171.032 12.4824 171.88 11.7863C172.697 11.0902 173.636 10.6358 174.634 10.3634C175.634 10.1211 176.602 10 177.51 10C178.085 10 178.661 10.0306 179.176 10.0608C179.69 10.091 180.174 10.1518 180.598 10.1819C181.022 10.2423 181.385 10.303 181.688 10.3634C181.96 10.4242 182.172 10.4543 182.293 10.4845C182.505 10.5448 182.657 10.6056 182.778 10.6966C182.899 10.7871 182.959 10.969 182.959 11.1806V13.2092C182.959 13.3906 182.929 13.5419 182.838 13.6631C182.747 13.7842 182.566 13.8445 182.354 13.8445H182.293C182.021 13.8144 181.718 13.7842 181.355 13.754C180.961 13.7234 180.568 13.7234 180.144 13.6932C179.72 13.6631 179.296 13.6631 178.842 13.6329C178.388 13.6027 177.964 13.6027 177.571 13.6027C176.935 13.6027 176.33 13.6932 175.815 13.8752C175.27 14.0868 174.816 14.3894 174.423 14.8136C174.029 15.2674 173.727 15.8424 173.515 16.5692C173.303 17.2955 173.181 18.2037 173.181 19.2633V23.713C173.181 24.7725 173.303 25.6506 173.515 26.3769C173.727 27.1036 174.029 27.6786 174.423 28.133C174.816 28.5869 175.27 28.8895 175.815 29.0714C176.33 29.283 176.935 29.374 177.571 29.374C177.964 29.374 178.388 29.374 178.842 29.3438C179.296 29.3132 179.72 29.3132 180.144 29.283C180.568 29.2528 180.961 29.2227 181.355 29.192C181.718 29.1619 182.021 29.1619 182.293 29.1317H182.354C182.566 29.1317 182.747 29.192 182.838 29.3132C182.929 29.4343 182.959 29.5856 182.959 29.7675V31.7956ZM200.002 31.9167C200.002 32.1288 199.972 32.2801 199.881 32.3706C199.79 32.4616 199.609 32.5219 199.396 32.5525C199.154 32.5827 198.882 32.643 198.609 32.6737C198.307 32.734 197.943 32.7948 197.52 32.8249C197.066 32.8551 196.551 32.9155 195.945 32.9461C195.31 32.9762 194.553 32.9762 193.645 32.9762C192.646 32.9762 191.738 32.8853 190.891 32.734C190.043 32.5827 189.286 32.2499 188.681 31.7956C188.045 31.3417 187.53 30.7361 187.167 29.9188C186.804 29.1015 186.622 28.0722 186.622 26.7704V16.2058C186.622 14.9041 186.804 13.8752 187.167 13.0574C187.53 12.2402 188.045 11.6044 188.681 11.1505C189.286 10.6966 190.043 10.3935 190.891 10.2423C191.738 10.091 192.646 10 193.645 10C194.553 10 195.31 10 195.945 10.0306C196.551 10.0608 197.066 10.1211 197.52 10.1517C197.943 10.1819 198.307 10.2423 198.609 10.2729C198.882 10.3332 199.154 10.3935 199.396 10.4242C199.609 10.4543 199.79 10.5147 199.881 10.6056C199.972 10.6966 200.002 10.8479 200.002 11.0595V12.9971C200.002 13.1484 199.941 13.2997 199.82 13.4208C199.7 13.5419 199.548 13.6027 199.396 13.6027H193.221C192.343 13.6027 191.708 13.7842 191.375 14.1476C191.011 14.5105 190.83 15.2066 190.83 16.2058V19.4754H199.034C199.185 19.4754 199.336 19.5357 199.457 19.6568C199.578 19.7779 199.639 19.9292 199.639 20.0805V22.2599C199.639 22.4117 199.578 22.563 199.457 22.6841C199.336 22.8052 199.185 22.8655 199.034 22.8655H190.83V26.7704C190.83 27.7696 191.011 28.4657 191.375 28.8291C191.708 29.192 192.343 29.374 193.221 29.374H199.396C199.548 29.374 199.7 29.4343 199.82 29.5554C199.941 29.6766 200.002 29.8279 200.002 29.9791V31.9167Z" fill="#292D33"/>
<path d="M94.1086 42.8381C94.1086 43.6879 93.954 44.4021 93.6644 44.9809C93.3558 45.56 92.9506 46.0237 92.429 46.3708C91.9273 46.7379 91.3291 46.9885 90.6724 47.1236C89.9972 47.2781 89.2829 47.3556 88.5297 47.3556C88.2791 47.3556 87.9895 47.3361 87.6419 47.3166C87.3138 47.2976 87.0242 47.2976 86.8116 47.2781V52.3163C86.8116 52.4128 86.7731 52.5093 86.7151 52.5868C86.6381 52.6639 86.5415 52.7024 86.445 52.7024H84.5148C84.4183 52.7024 84.3218 52.6639 84.2443 52.5868C84.1672 52.5093 84.1287 52.4128 84.1287 52.3163V39.0354C84.1287 38.8423 84.1867 38.7073 84.3023 38.6107C84.3988 38.5337 84.5534 38.4757 84.7464 38.4566C85.2481 38.3791 85.8273 38.3211 86.4835 38.2636C87.1402 38.2246 87.835 38.2056 88.5492 38.2056C89.2829 38.2056 89.9972 38.2826 90.6724 38.4177C91.3291 38.5527 91.9273 38.8038 92.429 39.1514C92.9506 39.499 93.3558 39.9622 93.6644 40.5219C93.954 41.101 94.1086 41.8153 94.1086 42.6646V42.8381ZM91.4256 42.6451C91.4256 41.8348 91.1936 41.2556 90.7114 40.9275C90.2287 40.5799 89.495 40.4063 88.5297 40.4063C88.4332 40.4063 88.2981 40.4063 88.1436 40.4063C87.97 40.4253 87.8155 40.4253 87.6419 40.4253C87.4683 40.4448 87.3138 40.4448 87.1787 40.4448C87.0242 40.4638 86.9082 40.4638 86.8116 40.4833V45.0969C86.8891 45.0969 87.0047 45.0969 87.1787 45.0969C87.3333 45.1164 87.5068 45.1164 87.6804 45.1164C87.8545 45.1354 88.0085 45.1354 88.1826 45.1354C88.3366 45.1549 88.4527 45.1549 88.5297 45.1549C89.5721 45.1549 90.3253 44.9618 90.7689 44.5757C91.2131 44.1896 91.4256 43.6104 91.4256 42.8191V42.6451ZM106.637 52.4708C106.637 52.6254 106.56 52.7024 106.405 52.7024H104.05C103.953 52.7024 103.876 52.6639 103.818 52.5868C103.761 52.5093 103.722 52.4128 103.664 52.3163L100.884 47.1816H100.614C100.363 47.1816 100.054 47.1625 99.7259 47.143C99.3978 47.1236 99.1082 47.1236 98.8961 47.1045V52.3163C98.8961 52.4128 98.8571 52.5093 98.7996 52.5868C98.7221 52.6639 98.6256 52.7024 98.529 52.7024H96.5989C96.5023 52.7024 96.4058 52.6639 96.3288 52.5868C96.2513 52.5093 96.2127 52.4128 96.2127 52.3163V39.0354C96.2127 38.8423 96.2708 38.7073 96.3863 38.6107C96.4828 38.5337 96.6374 38.4757 96.8305 38.4566C97.3321 38.3791 97.9113 38.3211 98.568 38.2636C99.2242 38.2246 99.919 38.2056 100.633 38.2056C101.367 38.2056 102.081 38.2826 102.757 38.4177C103.413 38.5722 104.011 38.8233 104.513 39.1514C105.035 39.4795 105.44 39.9236 105.749 40.4833C106.038 41.043 106.193 41.7382 106.193 42.568V42.7416C106.193 43.7649 105.961 44.6142 105.478 45.2514C105.015 45.8881 104.378 46.3708 103.568 46.6799L106.598 52.3163C106.617 52.3553 106.637 52.4128 106.637 52.4708ZM103.51 42.568C103.51 41.8348 103.278 41.3136 102.795 40.985C102.313 40.6569 101.579 40.5028 100.614 40.5028C100.518 40.5028 100.382 40.5028 100.228 40.5028C100.054 40.5218 99.9 40.5219 99.7259 40.5219C99.5524 40.5413 99.3978 40.5413 99.2628 40.5413C99.1082 40.5604 98.9927 40.5604 98.8961 40.5799V44.9233C98.9732 44.9233 99.0892 44.9233 99.2628 44.9233C99.4173 44.9423 99.5909 44.9423 99.7644 44.9423C99.9385 44.9618 100.093 44.9618 100.267 44.9618C100.421 44.9808 100.537 44.9809 100.614 44.9809C101.618 44.9809 102.351 44.8268 102.814 44.4987C103.278 44.1705 103.51 43.5914 103.51 42.7416V42.568Z" fill="#5C8EE6"/>
<path d="M119.03 46.8345C119.03 47.8958 118.894 48.8226 118.624 49.5754C118.335 50.3282 117.968 50.9459 117.466 51.4285C116.984 51.9112 116.404 52.2778 115.729 52.5094C115.073 52.741 114.339 52.857 113.548 52.857C112.737 52.857 112.003 52.741 111.347 52.5094C110.671 52.2778 110.092 51.9112 109.61 51.4285C109.127 50.9459 108.741 50.3282 108.47 49.5754C108.181 48.8226 108.046 47.8958 108.046 46.8345V44.2281C108.046 43.1667 108.181 42.2594 108.47 41.4872C108.741 40.7344 109.127 40.0972 109.61 39.6146C110.092 39.1319 110.671 38.7848 111.347 38.5527C112.003 38.3211 112.737 38.2056 113.548 38.2056C114.339 38.2056 115.073 38.3211 115.729 38.5527C116.404 38.7848 116.984 39.1319 117.466 39.6146C117.968 40.0972 118.335 40.7344 118.624 41.4872C118.894 42.2594 119.03 43.1667 119.03 44.2281V46.8345ZM116.346 44.2281C116.346 42.9347 116.115 42.0083 115.652 41.4097C115.208 40.8309 114.493 40.5414 113.548 40.5414C112.582 40.5414 111.868 40.8309 111.424 41.4097C110.961 42.0083 110.729 42.9347 110.729 44.2281V46.8345C110.729 48.1274 110.961 49.0542 111.424 49.6334C111.868 50.2316 112.582 50.5212 113.548 50.5212C114.493 50.5212 115.208 50.2316 115.652 49.6334C116.115 49.0542 116.346 48.1274 116.346 46.8345V44.2281ZM131.944 46.95C131.944 48.8612 131.422 50.3282 130.361 51.332C129.318 52.3553 127.813 52.857 125.883 52.857C125.516 52.857 125.168 52.857 124.782 52.8375C124.396 52.8185 124.029 52.799 123.682 52.78C123.315 52.7605 123.006 52.7219 122.717 52.7025C122.427 52.6834 122.195 52.6444 122.06 52.6254C121.887 52.6059 121.771 52.5484 121.694 52.4519C121.597 52.3553 121.558 52.2198 121.558 52.0267V39.0354C121.558 38.8423 121.597 38.7073 121.694 38.6107C121.771 38.5142 121.887 38.4567 122.06 38.4372C122.195 38.4177 122.427 38.3791 122.717 38.3601C123.006 38.3406 123.315 38.3021 123.682 38.2826C124.029 38.2636 124.396 38.2441 124.782 38.2246C125.168 38.2056 125.516 38.2056 125.883 38.2056C127.813 38.2056 129.318 38.7073 130.361 39.7111C131.422 40.7344 131.944 42.2014 131.944 44.1125V46.95ZM129.261 44.1125C129.261 43.3983 129.183 42.7996 129.01 42.3365C128.836 41.8538 128.585 41.4872 128.295 41.1976C127.986 40.9275 127.62 40.7344 127.215 40.6184C126.79 40.5219 126.346 40.4639 125.863 40.4639C125.496 40.4639 125.187 40.4638 124.936 40.4833C124.686 40.5028 124.454 40.5028 124.242 40.5219V50.5597C124.454 50.5792 124.686 50.5792 124.936 50.5983C125.187 50.6177 125.496 50.6178 125.863 50.6178C126.346 50.6178 126.79 50.5597 127.215 50.4442C127.62 50.3477 127.986 50.1546 128.295 49.865C128.585 49.5949 128.836 49.2278 129.01 48.7451C129.183 48.282 129.261 47.6837 129.261 46.9695V44.1125ZM144.954 47.3942C144.954 48.417 144.819 49.2858 144.568 49.9806C144.298 50.6758 143.931 51.2355 143.468 51.6601C142.985 52.0848 142.426 52.3938 141.788 52.5674C141.132 52.7605 140.418 52.857 139.646 52.857C138.874 52.857 138.16 52.7605 137.522 52.5674C136.866 52.3938 136.307 52.0848 135.843 51.6601C135.36 51.2355 134.994 50.6758 134.743 49.9806C134.472 49.2858 134.337 48.417 134.337 47.3942V38.7268C134.337 38.6302 134.376 38.5337 134.453 38.4566C134.53 38.3986 134.627 38.3601 134.724 38.3601H136.635C136.731 38.3601 136.828 38.3986 136.905 38.4566C136.982 38.5337 137.021 38.6302 137.021 38.7268V47.4132C137.021 47.9539 137.059 48.4365 137.136 48.8417C137.214 49.2473 137.349 49.5949 137.561 49.865C137.754 50.1351 138.024 50.3282 138.353 50.4632C138.681 50.5983 139.125 50.6563 139.646 50.6563C140.167 50.6563 140.592 50.5983 140.939 50.4632C141.267 50.3282 141.538 50.1351 141.75 49.865C141.943 49.5949 142.078 49.2473 142.156 48.8417C142.233 48.4365 142.271 47.9539 142.271 47.4132V38.7268C142.271 38.6302 142.31 38.5337 142.387 38.4566C142.464 38.3986 142.561 38.3601 142.657 38.3601H144.568C144.665 38.3601 144.761 38.3986 144.838 38.4566C144.916 38.5337 144.954 38.6302 144.954 38.7268V47.3942ZM156.286 52.1042C156.286 52.2393 156.247 52.3358 156.17 52.3938C156.093 52.4519 155.996 52.5094 155.861 52.5484C155.784 52.5674 155.649 52.6059 155.475 52.6254C155.282 52.6639 155.05 52.7025 154.78 52.741C154.51 52.7605 154.201 52.799 153.873 52.8185C153.544 52.8375 153.178 52.857 152.811 52.857C152.232 52.857 151.614 52.78 150.977 52.6059C150.34 52.4324 149.742 52.1233 149.22 51.6796C148.68 51.2355 148.256 50.6372 147.888 49.884C147.541 49.1313 147.367 48.1469 147.367 46.95V44.1125C147.367 42.8962 147.541 41.9118 147.888 41.1396C148.256 40.3868 148.68 39.7886 149.22 39.3445C149.742 38.9003 150.34 38.6107 150.977 38.4372C151.614 38.2826 152.232 38.2056 152.811 38.2056C153.178 38.2056 153.544 38.2246 153.873 38.2441C154.201 38.2636 154.51 38.3021 154.78 38.3211C155.05 38.3601 155.282 38.3986 155.475 38.4372C155.649 38.4757 155.784 38.4952 155.861 38.5142C155.996 38.5527 156.093 38.5917 156.17 38.6492C156.247 38.7073 156.286 38.8233 156.286 38.9583V40.2518C156.286 40.3673 156.266 40.4638 156.208 40.5414C156.151 40.6184 156.035 40.6569 155.9 40.6569H155.861C155.687 40.6379 155.494 40.6184 155.262 40.5989C155.012 40.5799 154.761 40.5799 154.491 40.5604C154.22 40.5414 153.95 40.5414 153.66 40.5219C153.371 40.5028 153.101 40.5028 152.85 40.5028C152.444 40.5028 152.058 40.5604 151.73 40.6764C151.383 40.8115 151.093 41.0045 150.842 41.2746C150.591 41.5642 150.398 41.9313 150.263 42.3945C150.128 42.8576 150.051 43.4368 150.051 44.1125V46.95C150.051 47.6257 150.128 48.1854 150.263 48.6486C150.398 49.1122 150.591 49.4789 150.842 49.7685C151.093 50.0581 151.383 50.2511 151.73 50.3667C152.058 50.5017 152.444 50.5597 152.85 50.5597C153.101 50.5597 153.371 50.5597 153.66 50.5407C153.95 50.5212 154.22 50.5212 154.491 50.5017C154.761 50.4827 155.012 50.4632 155.262 50.4442C155.494 50.4247 155.687 50.4247 155.861 50.4052H155.9C156.035 50.4052 156.151 50.4442 156.208 50.5212C156.266 50.5983 156.286 50.6948 156.286 50.8108V52.1042ZM167.868 40.2518C167.868 40.3483 167.829 40.4448 167.752 40.5028C167.675 40.5604 167.578 40.5989 167.482 40.5989H164.104V52.3163C164.104 52.4129 164.065 52.5094 163.988 52.5869C163.911 52.6639 163.814 52.7025 163.718 52.7025H161.807C161.71 52.7025 161.613 52.6639 161.536 52.5869C161.459 52.5094 161.42 52.4129 161.42 52.3163V40.5989H158.042C157.946 40.5989 157.849 40.5604 157.772 40.5028C157.695 40.4448 157.656 40.3483 157.656 40.2518V38.7268C157.656 38.6302 157.695 38.5337 157.772 38.4566C157.849 38.3986 157.946 38.3601 158.042 38.3601H167.482C167.578 38.3601 167.675 38.3986 167.752 38.4566C167.829 38.5337 167.868 38.6302 167.868 38.7268V40.2518ZM172.482 52.3163C172.482 52.4129 172.443 52.5094 172.366 52.5869C172.289 52.6639 172.192 52.7025 172.095 52.7025H170.184C170.088 52.7025 169.991 52.6639 169.914 52.5869C169.837 52.5094 169.798 52.4129 169.798 52.3163V38.7268C169.798 38.6302 169.837 38.5337 169.914 38.4566C169.991 38.3986 170.088 38.3601 170.184 38.3601H172.095C172.192 38.3601 172.289 38.3986 172.366 38.4566C172.443 38.5337 172.482 38.6302 172.482 38.7268V52.3163ZM185.975 46.8345C185.975 47.8958 185.84 48.8226 185.569 49.5754C185.28 50.3282 184.913 50.9459 184.411 51.4285C183.928 51.9112 183.349 52.2778 182.674 52.5094C182.017 52.741 181.284 52.857 180.492 52.857C179.682 52.857 178.948 52.741 178.292 52.5094C177.616 52.2778 177.037 51.9112 176.554 51.4285C176.072 50.9459 175.686 50.3282 175.416 49.5754C175.126 48.8226 174.991 47.8958 174.991 46.8345V44.2281C174.991 43.1667 175.126 42.2594 175.416 41.4872C175.686 40.7344 176.072 40.0972 176.554 39.6146C177.037 39.1319 177.616 38.7848 178.292 38.5527C178.948 38.3211 179.682 38.2056 180.492 38.2056C181.284 38.2056 182.017 38.3211 182.674 38.5527C183.349 38.7848 183.928 39.1319 184.411 39.6146C184.913 40.0972 185.28 40.7344 185.569 41.4872C185.84 42.2594 185.975 43.1667 185.975 44.2281V46.8345ZM183.291 44.2281C183.291 42.9347 183.06 42.0083 182.596 41.4097C182.152 40.8309 181.438 40.5414 180.492 40.5414C179.527 40.5414 178.813 40.8309 178.369 41.4097C177.906 42.0083 177.674 42.9347 177.674 44.2281V46.8345C177.674 48.1274 177.906 49.0542 178.369 49.6334C178.813 50.2316 179.527 50.5212 180.492 50.5212C181.438 50.5212 182.152 50.2316 182.596 49.6334C183.06 49.0542 183.291 48.1274 183.291 46.8345V44.2281ZM199.352 51.9307C199.352 52.1428 199.275 52.3358 199.14 52.4709C198.985 52.6254 198.792 52.7025 198.58 52.7025H196.63C196.399 52.7025 196.186 52.6639 195.993 52.6059C195.781 52.5484 195.607 52.3553 195.453 52.0077L191.167 42.6066C191.109 42.51 191.051 42.4525 190.994 42.4525C190.936 42.4525 190.897 42.51 190.897 42.6066V52.3163C190.897 52.4129 190.858 52.5094 190.801 52.5869C190.723 52.6639 190.627 52.7025 190.53 52.7025H188.89C188.793 52.7025 188.696 52.6639 188.619 52.5869C188.542 52.5094 188.503 52.4129 188.503 52.3163V39.1319C188.503 38.9198 188.58 38.7268 188.735 38.5722C188.87 38.4372 189.063 38.3601 189.276 38.3601H191.36C191.572 38.3601 191.727 38.3986 191.862 38.4757C191.978 38.5527 192.094 38.7267 192.21 38.9778L196.708 48.8997C196.746 48.9962 196.804 49.0542 196.862 49.0542C196.92 49.0542 196.958 48.9962 196.958 48.8806V38.7268C196.958 38.4757 197.074 38.3601 197.325 38.3601H198.985C199.236 38.3601 199.352 38.4757 199.352 38.7268V51.9307Z" fill="#5C8EE6"/>
</g>
<defs>
<clipPath id="clip0_191_2493">
<rect width="200" height="62.8571" fill="white"/>
</clipPath>
</defs>
</svg>
