<svg width="24" height="24" viewBox="0 0 24 24" fill="none" xmlns="http://www.w3.org/2000/svg">
<path d="M4.3125 9.96875C5.03125 10.5312 5.9375 11.2188 9.125 13.5312C9.75 14 10.9062 15.0312 12 15.0312C13.125 15.0312 14.25 14 14.9062 13.5312C18.0938 11.2188 19 10.5312 19.7188 9.96875C19.8438 9.875 20 9.96875 20 10.125V16.5C20 17.3438 19.3438 18 18.5 18H5.5C4.6875 18 4 17.3438 4 16.5V10.125C4 9.96875 4.1875 9.875 4.3125 9.96875ZM12 14C11.2812 14.0312 10.25 13.0938 9.71875 12.7188C5.5625 9.71875 5.25 9.4375 4.3125 8.6875C4.125 8.5625 4 8.34375 4 8.09375V7.5C4 6.6875 4.6875 6 5.5 6H18.5C19.3438 6 20 6.6875 20 7.5V8.09375C20 8.34375 19.9062 8.5625 19.7188 8.6875C18.7812 9.4375 18.4688 9.71875 14.3125 12.7188C13.7812 13.0938 12.75 14.0312 12 14Z" fill="#5C8EE6"/>
</svg>
