<svg width="24" height="24" viewBox="0 0 24 24" fill="none" xmlns="http://www.w3.org/2000/svg">
<path d="M20.3125 5.125V10.1875C20.3125 10.8203 19.7852 11.3125 19.1875 11.3125H14.125C13.4922 11.3125 13 10.8203 13 10.1875C13 9.58984 13.4922 9.0625 14.125 9.0625H16.3398C15.2852 7.69141 13.6328 6.84766 11.8398 6.84766C8.74609 6.84766 6.25 9.34375 6.25 12.4375C6.25 15.5664 8.74609 18.0625 11.8398 18.0625C13.0703 18.0625 14.2305 17.6758 15.2148 16.9375C15.707 16.5859 16.4102 16.6914 16.7969 17.1836C17.1836 17.6758 17.0781 18.3789 16.5859 18.7656C15.2148 19.7852 13.5625 20.3125 11.8398 20.3125C7.51562 20.3125 4 16.7969 4 12.4375C4 8.11328 7.51562 4.59766 11.8398 4.59766C14.3008 4.59766 16.5508 5.72266 18.0625 7.62109V5.125C18.0625 4.52734 18.5547 4 19.1875 4C19.7852 4 20.3125 4.52734 20.3125 5.125Z" fill="#5C8EE6"/>
</svg>
