<svg width="24" height="24" viewBox="0 0 24 24" fill="none" xmlns="http://www.w3.org/2000/svg">
<path d="M14.1484 10.8008C14.1836 11.1523 14.2539 11.4688 14.2539 11.9258C14.2539 15.793 11.6523 18.5 7.75 18.5C4.02344 18.5 1 15.5117 1 11.75C1 8.02344 4.02344 5 7.75 5C9.57812 5 11.0898 5.66797 12.2852 6.79297L10.457 8.55078C9.96484 8.05859 9.08594 7.49609 7.75 7.49609C5.46484 7.49609 3.56641 9.39453 3.56641 11.75C3.56641 14.1406 5.46484 16.0391 7.75 16.0391C10.4219 16.0391 11.4414 14.1055 11.582 13.1211H7.75V10.8008H14.1484ZM20.6523 11.0117V9.07812H18.6836V11.0117H16.7148V12.9805H18.6836V14.9492H20.6523V12.9805H22.6211V11.0117H20.6523Z" fill="#5C8EE6"/>
</svg>
